<?xml version="1.0" encoding="UTF-8"?>
<!DOCTYPE svg PUBLIC "-//W3C//DTD SVG 1.1//EN" "http://www.w3.org/Graphics/SVG/1.1/DTD/svg11.dtd">
<svg xmlns="http://www.w3.org/2000/svg" xmlns:xlink="http://www.w3.org/1999/xlink" version="1.1" width="611px" height="292px" viewBox="-0.5 -0.5 611 292" style="background-color: rgb(255, 255, 255);"><defs><clipPath id="mx-clip-198-55-224-26-0"><rect x="198" y="55" width="224" height="26"/></clipPath><clipPath id="mx-clip-198-81-224-44-0"><rect x="198" y="81" width="224" height="44"/></clipPath><clipPath id="mx-clip-14-225-132-26-0"><rect x="14" y="225" width="132" height="26"/></clipPath><clipPath id="mx-clip-14-251-132-26-0"><rect x="14" y="251" width="132" height="26"/></clipPath><clipPath id="mx-clip-214-225-192-26-0"><rect x="214" y="225" width="192" height="26"/></clipPath><clipPath id="mx-clip-214-251-192-26-0"><rect x="214" y="251" width="192" height="26"/></clipPath><clipPath id="mx-clip-464-225-132-26-0"><rect x="464" y="225" width="132" height="26"/></clipPath><clipPath id="mx-clip-464-251-132-26-0"><rect x="464" y="251" width="132" height="26"/></clipPath></defs><g><path d="M 194 50 L 194 10 L 426 10 L 426 50" fill="rgb(255, 255, 255)" stroke="rgb(0, 0, 0)" stroke-miterlimit="10" pointer-events="all"/><path d="M 194 50 L 194 120 L 426 120 L 426 50" fill="none" stroke="rgb(0, 0, 0)" stroke-miterlimit="10" pointer-events="none"/><path d="M 194 50 L 426 50" fill="none" stroke="rgb(0, 0, 0)" stroke-miterlimit="10" pointer-events="none"/><g fill="#000000" font-family="Helvetica" text-anchor="middle" font-size="12px"><text x="309.5" y="27.5">&lt;&lt; enum &gt;&gt;</text><text x="309.5" y="41.5">DecisionTree</text></g><rect x="194" y="50" width="232" height="26" fill="none" stroke="none" pointer-events="all"/><g fill="#000000" font-family="Helvetica" clip-path="url(#mx-clip-198-55-224-26-0)" font-size="12px"><text x="199.5" y="67.5">Leaf(d: Decision)</text></g><rect x="194" y="76" width="232" height="44" fill="none" stroke="none" pointer-events="all"/><g fill="#000000" font-family="Helvetica" clip-path="url(#mx-clip-198-81-224-44-0)" font-size="12px"><text x="199.5" y="93.5">Branch(d: Decision, left: DecisionTree,</text><text x="199.5" y="107.5">    right: DecisionTree)</text></g><path d="M 10 220 L 10 180 L 150 180 L 150 220" fill="rgb(255, 255, 255)" stroke="rgb(0, 0, 0)" stroke-miterlimit="10" pointer-events="all"/><path d="M 10 220 L 10 280 L 150 280 L 150 220" fill="none" stroke="rgb(0, 0, 0)" stroke-miterlimit="10" pointer-events="none"/><path d="M 10 220 L 150 220" fill="none" stroke="rgb(0, 0, 0)" stroke-miterlimit="10" pointer-events="none"/><g fill="rgb(0, 0, 0)" font-family="Helvetica" text-anchor="middle" font-size="12px"><text x="79.5" y="197.5">&lt;&lt; case class &gt;&gt;</text><text x="79.5" y="211.5">Decision</text></g><rect x="10" y="220" width="140" height="26" fill="none" stroke="none" pointer-events="all"/><g fill="#000000" font-family="Helvetica" clip-path="url(#mx-clip-14-225-132-26-0)" font-size="12px"><text x="15.5" y="237.5">pa: PartialAssignment</text></g><rect x="10" y="246" width="140" height="26" fill="none" stroke="none" pointer-events="all"/><g fill="#000000" font-family="Helvetica" clip-path="url(#mx-clip-14-251-132-26-0)" font-size="12px"><text x="15.5" y="263.5">cnf: CNF</text></g><path d="M 10 276 L 150 276" fill="none" stroke="#000000" stroke-miterlimit="10" pointer-events="all"/><path d="M 210 220 L 210 180 L 410 180 L 410 220" fill="rgb(255, 255, 255)" stroke="rgb(0, 0, 0)" stroke-miterlimit="10" pointer-events="all"/><path d="M 210 220 L 210 280 L 410 280 L 410 220" fill="none" stroke="rgb(0, 0, 0)" stroke-miterlimit="10" pointer-events="none"/><path d="M 210 220 L 410 220" fill="none" stroke="rgb(0, 0, 0)" stroke-miterlimit="10" pointer-events="none"/><g fill="rgb(0, 0, 0)" font-family="Helvetica" text-anchor="middle" font-size="12px"><text x="309.5" y="197.5">&lt;&lt; case class &gt;&gt;</text><text x="309.5" y="211.5">PartialAssignment</text></g><rect x="210" y="220" width="200" height="26" fill="none" stroke="none" pointer-events="all"/><g fill="#000000" font-family="Helvetica" clip-path="url(#mx-clip-214-225-192-26-0)" font-size="12px"><text x="215.5" y="237.5">optVariables: List[OptionalVariable]</text></g><rect x="210" y="246" width="200" height="26" fill="none" stroke="none" pointer-events="all"/><g fill="#000000" font-family="Helvetica" clip-path="url(#mx-clip-214-251-192-26-0)" font-size="12px"><text x="215.5" y="263.5">toAssignments: List[Assignment]</text></g><path d="M 210 276 L 410 276" fill="none" stroke="#000000" stroke-miterlimit="10" pointer-events="all"/><path d="M 460 220 L 460 180 L 600 180 L 600 220" fill="rgb(255, 255, 255)" stroke="rgb(0, 0, 0)" stroke-miterlimit="10" pointer-events="all"/><path d="M 460 220 L 460 280 L 600 280 L 600 220" fill="none" stroke="rgb(0, 0, 0)" stroke-miterlimit="10" pointer-events="none"/><path d="M 460 220 L 600 220" fill="none" stroke="rgb(0, 0, 0)" stroke-miterlimit="10" pointer-events="none"/><g fill="rgb(0, 0, 0)" font-family="Helvetica" text-anchor="middle" font-size="12px"><text x="529.5" y="197.5">&lt;&lt; case class &gt;&gt;</text><text x="529.5" y="211.5">OptionalVariable</text></g><rect x="460" y="220" width="140" height="26" fill="none" stroke="none" pointer-events="all"/><g fill="#000000" font-family="Helvetica" clip-path="url(#mx-clip-464-225-132-26-0)" font-size="12px"><text x="465.5" y="237.5">name: String</text></g><rect x="460" y="246" width="140" height="26" fill="none" stroke="none" pointer-events="all"/><g fill="#000000" font-family="Helvetica" clip-path="url(#mx-clip-464-251-132-26-0)" font-size="12px"><text x="465.5" y="263.5">value: Option[Boolean]</text></g><path d="M 460 276 L 600 276" fill="none" stroke="#000000" stroke-miterlimit="10" pointer-events="all"/><path d="M 80 180 L 80.06 72.06 L 173.46 72.01" fill="none" stroke="rgb(0, 0, 0)" stroke-miterlimit="10" pointer-events="stroke"/><path d="M 190.46 72 L 181.96 77 L 173.46 72.01 L 181.96 67 Z" fill="rgb(0, 0, 0)" stroke="rgb(0, 0, 0)" stroke-miterlimit="10" pointer-events="all"/><path d="M 210 229.94 L 185 229.94 L 171.62 229.73" fill="none" stroke="rgb(0, 0, 0)" stroke-miterlimit="10" pointer-events="stroke"/><path d="M 154.63 229.45 L 163.21 224.59 L 171.62 229.73 L 163.04 234.59 Z" fill="rgb(0, 0, 0)" stroke="rgb(0, 0, 0)" stroke-miterlimit="10" pointer-events="all"/><path d="M 460 233 L 427.99 233" fill="none" stroke="rgb(0, 0, 0)" stroke-miterlimit="10" pointer-events="stroke"/><path d="M 410.99 233 L 419.49 228 L 427.99 233 L 419.49 238 Z" fill="rgb(0, 0, 0)" stroke="rgb(0, 0, 0)" stroke-miterlimit="10" pointer-events="all"/></g></svg>