<?xml version="1.0" encoding="UTF-8"?>
<!DOCTYPE svg PUBLIC "-//W3C//DTD SVG 1.1//EN" "http://www.w3.org/Graphics/SVG/1.1/DTD/svg11.dtd">
<svg xmlns="http://www.w3.org/2000/svg" xmlns:xlink="http://www.w3.org/1999/xlink" version="1.1" width="421px" height="332px" viewBox="-0.5 -0.5 421 332" style="background-color: rgb(255, 255, 255);"><defs><clipPath id="mx-clip-59-265-302-26-0"><rect x="59" y="265" width="302" height="26"/></clipPath><clipPath id="mx-clip-59-291-302-26-0"><rect x="59" y="291" width="302" height="26"/></clipPath><clipPath id="mx-clip-14-55-392-26-0"><rect x="14" y="55" width="392" height="26"/></clipPath><clipPath id="mx-clip-14-81-392-26-0"><rect x="14" y="81" width="392" height="26"/></clipPath><clipPath id="mx-clip-14-107-392-26-0"><rect x="14" y="107" width="392" height="26"/></clipPath><clipPath id="mx-clip-14-133-392-26-0"><rect x="14" y="133" width="392" height="26"/></clipPath></defs><g><path d="M 55 260 L 55 220 L 365 220 L 365 260" fill="rgb(255, 255, 255)" stroke="rgb(0, 0, 0)" stroke-miterlimit="10" pointer-events="all"/><path d="M 55 260 L 55 320 L 365 320 L 365 260" fill="none" stroke="rgb(0, 0, 0)" stroke-miterlimit="10" pointer-events="none"/><path d="M 55 260 L 365 260" fill="none" stroke="rgb(0, 0, 0)" stroke-miterlimit="10" pointer-events="none"/><g fill="rgb(0, 0, 0)" font-family="Helvetica" text-anchor="middle" font-size="12px"><text x="209.5" y="237.5">&lt;&lt; object &gt;&gt;</text><text x="209.5" y="251.5">Optimizations</text></g><rect x="55" y="260" width="310" height="26" fill="none" stroke="none" pointer-events="all"/><g fill="rgb(0, 0, 0)" font-family="Helvetica" clip-path="url(#mx-clip-59-265-302-26-0)" font-size="12px"><text x="60.5" y="277.5">unitLiteralIdentification(cnf: CNF): Option[Constraint]</text></g><rect x="55" y="286" width="310" height="26" fill="none" stroke="none" pointer-events="all"/><g fill="rgb(0, 0, 0)" font-family="Helvetica" clip-path="url(#mx-clip-59-291-302-26-0)" font-size="12px"><text x="60.5" y="303.5">pureLiteralIdentification(d: Decision): Option[Constraint]</text></g><path d="M 55 316 L 365 316" fill="none" stroke="rgb(0, 0, 0)" stroke-miterlimit="10" pointer-events="all"/><path d="M 210 162 L 210 213.63" fill="none" stroke="rgb(0, 0, 0)" stroke-miterlimit="10" pointer-events="stroke"/><path d="M 210 218.88 L 206.5 211.88 L 210 213.63 L 213.5 211.88 Z" fill="rgb(0, 0, 0)" stroke="rgb(0, 0, 0)" stroke-miterlimit="10" pointer-events="all"/><path d="M 10 50 L 10 10 L 410 10 L 410 50" fill="rgb(255, 255, 255)" stroke="rgb(0, 0, 0)" stroke-miterlimit="10" pointer-events="all"/><path d="M 10 50 L 10 162 L 410 162 L 410 50" fill="none" stroke="rgb(0, 0, 0)" stroke-miterlimit="10" pointer-events="none"/><path d="M 10 50 L 410 50" fill="none" stroke="rgb(0, 0, 0)" stroke-miterlimit="10" pointer-events="none"/><g fill="rgb(0, 0, 0)" font-family="Helvetica" text-anchor="middle" font-size="12px"><text x="209.5" y="27.5">&lt;&lt; object &gt;&gt;</text><text x="209.5" y="41.5">DpllDecision</text></g><rect x="10" y="50" width="400" height="26" fill="none" stroke="none" pointer-events="all"/><g fill="rgb(0, 0, 0)" font-family="Helvetica" clip-path="url(#mx-clip-14-55-392-26-0)" font-size="12px"><text x="15.5" y="67.5">decide(d: Decision, rnd: Random): List[Decision]</text></g><rect x="10" y="76" width="400" height="26" fill="none" stroke="none" pointer-events="all"/><g fill="rgb(0, 0, 0)" font-family="Helvetica" clip-path="url(#mx-clip-14-81-392-26-0)" font-size="12px"><text x="15.5" y="93.5">- randomDecisions(d: Decision, rnd: Random): List[Decision]</text></g><rect x="10" y="102" width="400" height="26" fill="none" stroke="none" pointer-events="all"/><g fill="rgb(0, 0, 0)" font-family="Helvetica" clip-path="url(#mx-clip-14-107-392-26-0)" font-size="12px"><text x="15.5" y="119.5">- unitPropagationDecision(d: Decision, c: Constraint): List[Decision]</text></g><rect x="10" y="128" width="400" height="26" fill="none" stroke="none" pointer-events="all"/><g fill="rgb(0, 0, 0)" font-family="Helvetica" clip-path="url(#mx-clip-14-133-392-26-0)" font-size="12px"><text x="15.5" y="145.5">- pureLiteralEliminationDecision(d: Decision, c: Constraint): List[Decision]</text></g><path d="M 10 158 L 410 158" fill="none" stroke="rgb(0, 0, 0)" stroke-miterlimit="10" pointer-events="all"/></g></svg>