<?xml version="1.0" encoding="UTF-8" standalone="no"?>
<!DOCTYPE svg PUBLIC "-//W3C//DTD SVG 1.1//EN"
 "http://www.w3.org/Graphics/SVG/1.1/DTD/svg11.dtd">
<!-- Generated by graphviz version 2.40.1 (20161225.0304)
 -->
<!-- Title: BinaryTree Pages: 1 -->
<svg width="233pt" height="188pt"
 viewBox="0.00 0.00 233.00 188.00" xmlns="http://www.w3.org/2000/svg" xmlns:xlink="http://www.w3.org/1999/xlink">
<g id="graph0" class="graph" transform="scale(1 1) rotate(0) translate(4 184)">
<title>BinaryTree</title>
<!-- And11 -->
<g id="node1" class="node">
<title>And11</title>
<polygon fill="none" stroke="#ffffff" points="90,-180 36,-180 36,-144 90,-144 90,-180"/>
<text text-anchor="middle" x="63" y="-157.8" font-family="monospace" font-size="14.00" fill="#ffffff">And</text>
</g>
<!-- True11 -->
<g id="node2" class="node">
<title>True11</title>
<polygon fill="none" stroke="#ffffff" points="54,-108 0,-108 0,-72 54,-72 54,-108"/>
<text text-anchor="middle" x="27" y="-85.8" font-family="monospace" font-size="14.00" fill="#ffffff">True</text>
</g>
<!-- And11&#45;&gt;True11 -->
<g id="edge1" class="edge">
<title>And11&#45;&gt;True11</title>
<path fill="none" stroke="#ffffff" d="M53.9157,-143.8314C49.9385,-135.8771 45.1845,-126.369 40.7861,-117.5723"/>
<polygon fill="#ffffff" stroke="#ffffff" points="43.8093,-115.7923 36.2066,-108.4133 37.5483,-118.9228 43.8093,-115.7923"/>
</g>
<!-- And12 -->
<g id="node3" class="node">
<title>And12</title>
<polygon fill="none" stroke="#ffffff" points="126,-108 72,-108 72,-72 126,-72 126,-108"/>
<text text-anchor="middle" x="99" y="-85.8" font-family="monospace" font-size="14.00" fill="#ffffff">And</text>
</g>
<!-- And11&#45;&gt;And12 -->
<g id="edge2" class="edge">
<title>And11&#45;&gt;And12</title>
<path fill="none" stroke="#ffffff" d="M72.0843,-143.8314C76.0615,-135.8771 80.8155,-126.369 85.2139,-117.5723"/>
<polygon fill="#ffffff" stroke="#ffffff" points="88.4517,-118.9228 89.7934,-108.4133 82.1907,-115.7923 88.4517,-118.9228"/>
</g>
<!-- B11 -->
<g id="node4" class="node">
<title>B11</title>
<polygon fill="none" stroke="#ffffff" points="90,-36 36,-36 36,0 90,0 90,-36"/>
<text text-anchor="middle" x="63" y="-13.8" font-family="monospace" font-size="14.00" fill="#ffffff">B</text>
</g>
<!-- And12&#45;&gt;B11 -->
<g id="edge3" class="edge">
<title>And12&#45;&gt;B11</title>
<path fill="none" stroke="#ffffff" d="M89.9157,-71.8314C85.9385,-63.8771 81.1845,-54.369 76.7861,-45.5723"/>
<polygon fill="#ffffff" stroke="#ffffff" points="79.8093,-43.7923 72.2066,-36.4133 73.5483,-46.9228 79.8093,-43.7923"/>
</g>
<!-- C11 -->
<g id="node5" class="node">
<title>C11</title>
<polygon fill="none" stroke="#ffffff" points="162,-36 108,-36 108,0 162,0 162,-36"/>
<text text-anchor="middle" x="135" y="-13.8" font-family="monospace" font-size="14.00" fill="#ffffff">C</text>
</g>
<!-- And12&#45;&gt;C11 -->
<g id="edge4" class="edge">
<title>And12&#45;&gt;C11</title>
<path fill="none" stroke="#ffffff" d="M108.0843,-71.8314C112.0615,-63.8771 116.8155,-54.369 121.2139,-45.5723"/>
<polygon fill="#ffffff" stroke="#ffffff" points="124.4517,-46.9228 125.7934,-36.4133 118.1907,-43.7923 124.4517,-46.9228"/>
</g>
<!-- invisible_node_11 -->
<g id="node6" class="node">
<title>invisible_node_11</title>
<ellipse fill="#ffffff" stroke="#ffffff" cx="153" cy="-162" rx="0" ry="0"/>
</g>
<!-- invisible_node_22 -->
<g id="node7" class="node">
<title>invisible_node_22</title>
<ellipse fill="#ffffff" stroke="#ffffff" cx="144" cy="-90" rx="0" ry="0"/>
</g>
<!-- invisible_node_11&#45;&gt;invisible_node_22 -->
<!-- invisible_node_33 -->
<g id="node8" class="node">
<title>invisible_node_33</title>
<ellipse fill="#ffffff" stroke="#ffffff" cx="162" cy="-90" rx="0" ry="0"/>
</g>
<!-- invisible_node_11&#45;&gt;invisible_node_33 -->
<!-- C -->
<g id="node9" class="node">
<title>C</title>
<polygon fill="none" stroke="#ffffff" points="225,-180 171,-180 171,-144 225,-144 225,-180"/>
<text text-anchor="middle" x="198" y="-157.8" font-family="monospace" font-size="14.00" fill="#ffffff">C</text>
</g>
</g>
</svg>
