<?xml version="1.0" encoding="UTF-8" standalone="no"?>
<!DOCTYPE svg PUBLIC "-//W3C//DTD SVG 1.1//EN"
 "http://www.w3.org/Graphics/SVG/1.1/DTD/svg11.dtd">
<!-- Generated by graphviz version 2.40.1 (20161225.0304)
 -->
<!-- Title: BinaryTree Pages: 1 -->
<svg width="314pt" height="260pt"
 viewBox="0.00 0.00 314.00 260.00" xmlns="http://www.w3.org/2000/svg" xmlns:xlink="http://www.w3.org/1999/xlink">
<g id="graph0" class="graph" transform="scale(1 1) rotate(0) translate(4 256)">
<title>BinaryTree</title>
<!-- And11 -->
<g id="node1" class="node">
<title>And11</title>
<polygon fill="none" stroke="#ffffff" points="90,-252 36,-252 36,-216 90,-216 90,-252"/>
<text text-anchor="middle" x="63" y="-229.8" font-family="monospace" font-size="14.00" fill="#ffffff">And</text>
</g>
<!-- A11 -->
<g id="node2" class="node">
<title>A11</title>
<polygon fill="none" stroke="#ffffff" points="54,-180 0,-180 0,-144 54,-144 54,-180"/>
<text text-anchor="middle" x="27" y="-157.8" font-family="monospace" font-size="14.00" fill="#ffffff">A</text>
</g>
<!-- And11&#45;&gt;A11 -->
<g id="edge1" class="edge">
<title>And11&#45;&gt;A11</title>
<path fill="none" stroke="#ffffff" d="M53.9157,-215.8314C49.9385,-207.8771 45.1845,-198.369 40.7861,-189.5723"/>
<polygon fill="#ffffff" stroke="#ffffff" points="43.8093,-187.7923 36.2066,-180.4133 37.5483,-190.9228 43.8093,-187.7923"/>
</g>
<!-- And12 -->
<g id="node3" class="node">
<title>And12</title>
<polygon fill="none" stroke="#ffffff" points="126,-180 72,-180 72,-144 126,-144 126,-180"/>
<text text-anchor="middle" x="99" y="-157.8" font-family="monospace" font-size="14.00" fill="#ffffff">And</text>
</g>
<!-- And11&#45;&gt;And12 -->
<g id="edge2" class="edge">
<title>And11&#45;&gt;And12</title>
<path fill="none" stroke="#ffffff" d="M72.0843,-215.8314C76.0615,-207.8771 80.8155,-198.369 85.2139,-189.5723"/>
<polygon fill="#ffffff" stroke="#ffffff" points="88.4517,-190.9228 89.7934,-180.4133 82.1907,-187.7923 88.4517,-190.9228"/>
</g>
<!-- B11 -->
<g id="node4" class="node">
<title>B11</title>
<polygon fill="none" stroke="#ffffff" points="90,-108 36,-108 36,-72 90,-72 90,-108"/>
<text text-anchor="middle" x="63" y="-85.8" font-family="monospace" font-size="14.00" fill="#ffffff">B</text>
</g>
<!-- And12&#45;&gt;B11 -->
<g id="edge3" class="edge">
<title>And12&#45;&gt;B11</title>
<path fill="none" stroke="#ffffff" d="M89.9157,-143.8314C85.9385,-135.8771 81.1845,-126.369 76.7861,-117.5723"/>
<polygon fill="#ffffff" stroke="#ffffff" points="79.8093,-115.7923 72.2066,-108.4133 73.5483,-118.9228 79.8093,-115.7923"/>
</g>
<!-- And13 -->
<g id="node5" class="node">
<title>And13</title>
<polygon fill="none" stroke="#ffffff" points="162,-108 108,-108 108,-72 162,-72 162,-108"/>
<text text-anchor="middle" x="135" y="-85.8" font-family="monospace" font-size="14.00" fill="#ffffff">And</text>
</g>
<!-- And12&#45;&gt;And13 -->
<g id="edge4" class="edge">
<title>And12&#45;&gt;And13</title>
<path fill="none" stroke="#ffffff" d="M108.0843,-143.8314C112.0615,-135.8771 116.8155,-126.369 121.2139,-117.5723"/>
<polygon fill="#ffffff" stroke="#ffffff" points="124.4517,-118.9228 125.7934,-108.4133 118.1907,-115.7923 124.4517,-118.9228"/>
</g>
<!-- A12 -->
<g id="node6" class="node">
<title>A12</title>
<polygon fill="none" stroke="#ffffff" points="126,-36 72,-36 72,0 126,0 126,-36"/>
<text text-anchor="middle" x="99" y="-13.8" font-family="monospace" font-size="14.00" fill="#ffffff">A</text>
</g>
<!-- And13&#45;&gt;A12 -->
<g id="edge5" class="edge">
<title>And13&#45;&gt;A12</title>
<path fill="none" stroke="#ffffff" d="M125.9157,-71.8314C121.9385,-63.8771 117.1845,-54.369 112.7861,-45.5723"/>
<polygon fill="#ffffff" stroke="#ffffff" points="115.8093,-43.7923 108.2066,-36.4133 109.5483,-46.9228 115.8093,-43.7923"/>
</g>
<!-- C11 -->
<g id="node7" class="node">
<title>C11</title>
<polygon fill="none" stroke="#ffffff" points="198,-36 144,-36 144,0 198,0 198,-36"/>
<text text-anchor="middle" x="171" y="-13.8" font-family="monospace" font-size="14.00" fill="#ffffff">C</text>
</g>
<!-- And13&#45;&gt;C11 -->
<g id="edge6" class="edge">
<title>And13&#45;&gt;C11</title>
<path fill="none" stroke="#ffffff" d="M144.0843,-71.8314C148.0615,-63.8771 152.8155,-54.369 157.2139,-45.5723"/>
<polygon fill="#ffffff" stroke="#ffffff" points="160.4517,-46.9228 161.7934,-36.4133 154.1907,-43.7923 160.4517,-46.9228"/>
</g>
<!-- invisible_node_11 -->
<g id="node8" class="node">
<title>invisible_node_11</title>
<ellipse fill="#ffffff" stroke="#ffffff" cx="153" cy="-234" rx="0" ry="0"/>
</g>
<!-- invisible_node_22 -->
<g id="node9" class="node">
<title>invisible_node_22</title>
<ellipse fill="#ffffff" stroke="#ffffff" cx="144" cy="-162" rx="0" ry="0"/>
</g>
<!-- invisible_node_11&#45;&gt;invisible_node_22 -->
<!-- invisible_node_33 -->
<g id="node10" class="node">
<title>invisible_node_33</title>
<ellipse fill="#ffffff" stroke="#ffffff" cx="162" cy="-162" rx="0" ry="0"/>
</g>
<!-- invisible_node_11&#45;&gt;invisible_node_33 -->
<!-- And21 -->
<g id="node11" class="node">
<title>And21</title>
<polygon fill="none" stroke="#ffffff" points="270,-252 216,-252 216,-216 270,-216 270,-252"/>
<text text-anchor="middle" x="243" y="-229.8" font-family="monospace" font-size="14.00" fill="#ffffff">And</text>
</g>
<!-- B21 -->
<g id="node12" class="node">
<title>B21</title>
<polygon fill="none" stroke="#ffffff" points="234,-180 180,-180 180,-144 234,-144 234,-180"/>
<text text-anchor="middle" x="207" y="-157.8" font-family="monospace" font-size="14.00" fill="#ffffff">B</text>
</g>
<!-- And21&#45;&gt;B21 -->
<g id="edge9" class="edge">
<title>And21&#45;&gt;B21</title>
<path fill="none" stroke="#ffffff" d="M233.9157,-215.8314C229.9385,-207.8771 225.1845,-198.369 220.7861,-189.5723"/>
<polygon fill="#ffffff" stroke="#ffffff" points="223.8093,-187.7923 216.2066,-180.4133 217.5483,-190.9228 223.8093,-187.7923"/>
</g>
<!-- C21 -->
<g id="node13" class="node">
<title>C21</title>
<polygon fill="none" stroke="#ffffff" points="306,-180 252,-180 252,-144 306,-144 306,-180"/>
<text text-anchor="middle" x="279" y="-157.8" font-family="monospace" font-size="14.00" fill="#ffffff">C</text>
</g>
<!-- And21&#45;&gt;C21 -->
<g id="edge10" class="edge">
<title>And21&#45;&gt;C21</title>
<path fill="none" stroke="#ffffff" d="M252.0843,-215.8314C256.0615,-207.8771 260.8155,-198.369 265.2139,-189.5723"/>
<polygon fill="#ffffff" stroke="#ffffff" points="268.4517,-190.9228 269.7934,-180.4133 262.1907,-187.7923 268.4517,-190.9228"/>
</g>
</g>
</svg>
