<?xml version="1.0" encoding="UTF-8"?>
<!DOCTYPE svg PUBLIC "-//W3C//DTD SVG 1.1//EN" "http://www.w3.org/Graphics/SVG/1.1/DTD/svg11.dtd">
<svg xmlns="http://www.w3.org/2000/svg" xmlns:xlink="http://www.w3.org/1999/xlink" version="1.1" width="511px" height="315px" viewBox="-0.5 -0.5 511 315" style="background-color: rgb(255, 255, 255);"><defs><clipPath id="mx-clip-64-55-172-26-0"><rect x="64" y="55" width="172" height="26"/></clipPath><clipPath id="mx-clip-64-81-172-26-0"><rect x="64" y="81" width="172" height="26"/></clipPath><clipPath id="mx-clip-64-107-172-26-0"><rect x="64" y="107" width="172" height="26"/></clipPath><clipPath id="mx-clip-324-80-172-26-0"><rect x="324" y="80" width="172" height="26"/></clipPath><clipPath id="mx-clip-324-229-172-26-0"><rect x="324" y="229" width="172" height="26"/></clipPath><clipPath id="mx-clip-324-255-172-26-0"><rect x="324" y="255" width="172" height="26"/></clipPath><clipPath id="mx-clip-14-249-112-26-0"><rect x="14" y="249" width="112" height="26"/></clipPath><clipPath id="mx-clip-14-275-112-26-0"><rect x="14" y="275" width="112" height="26"/></clipPath><clipPath id="mx-clip-164-249-112-26-0"><rect x="164" y="249" width="112" height="26"/></clipPath><clipPath id="mx-clip-164-275-112-26-0"><rect x="164" y="275" width="112" height="26"/></clipPath></defs><g><path d="M 60 50 L 60 10 L 240 10 L 240 50" fill="rgb(255, 255, 255)" stroke="rgb(0, 0, 0)" stroke-miterlimit="10" pointer-events="all"/><path d="M 60 50 L 60 140 L 240 140 L 240 50" fill="none" stroke="rgb(0, 0, 0)" stroke-miterlimit="10" pointer-events="none"/><path d="M 60 50 L 240 50" fill="none" stroke="rgb(0, 0, 0)" stroke-miterlimit="10" pointer-events="none"/><g fill="rgb(0, 0, 0)" font-family="Helvetica" text-anchor="middle" font-size="12px"><text x="149.5" y="27.5">&lt;&lt; case class &gt;&gt;</text><text x="149.5" y="41.5">Solution</text></g><rect x="60" y="50" width="180" height="26" fill="none" stroke="none" pointer-events="all"/><g fill="rgb(0, 0, 0)" font-family="Helvetica" clip-path="url(#mx-clip-64-55-172-26-0)" font-size="12px"><text x="65.5" y="67.5">result: Result</text></g><rect x="60" y="76" width="180" height="26" fill="none" stroke="none" pointer-events="all"/><g fill="rgb(0, 0, 0)" font-family="Helvetica" clip-path="url(#mx-clip-64-81-172-26-0)" font-size="12px"><text x="65.5" y="93.5">status: Status</text></g><rect x="60" y="102" width="180" height="26" fill="none" stroke="none" pointer-events="all"/><g fill="rgb(0, 0, 0)" font-family="Helvetica" clip-path="url(#mx-clip-64-107-172-26-0)" font-size="12px"><text x="65.5" y="119.5">assignments: List[Assignment]</text></g><path d="M 60 132 L 240 132" fill="none" stroke="rgb(0, 0, 0)" stroke-miterlimit="10" pointer-events="all"/><path d="M 317.3 82.59 L 250.15 82.63" fill="none" stroke="rgb(0, 0, 0)" stroke-miterlimit="10" pointer-events="stroke"/><path d="M 244.9 82.63 L 251.9 79.13 L 250.15 82.63 L 251.9 86.13 Z" fill="rgb(0, 0, 0)" stroke="rgb(0, 0, 0)" stroke-miterlimit="10" pointer-events="all"/><path d="M 320 75 L 320 35 L 500 35 L 500 75" fill="rgb(255, 255, 255)" stroke="rgb(0, 0, 0)" stroke-miterlimit="10" pointer-events="all"/><path d="M 320 75 L 320 115 L 500 115 L 500 75" fill="none" stroke="rgb(0, 0, 0)" stroke-miterlimit="10" pointer-events="none"/><path d="M 320 75 L 500 75" fill="none" stroke="rgb(0, 0, 0)" stroke-miterlimit="10" pointer-events="none"/><g fill="rgb(0, 0, 0)" font-family="Helvetica" text-anchor="middle" font-size="12px"><text x="409.5" y="52.5">&lt;&lt; case class &gt;&gt;</text><text x="409.5" y="66.5">Assignment</text></g><rect x="320" y="75" width="180" height="26" fill="none" stroke="none" pointer-events="all"/><g fill="rgb(0, 0, 0)" font-family="Helvetica" clip-path="url(#mx-clip-324-80-172-26-0)" font-size="12px"><text x="325.5" y="92.5">variables: List[Variable]</text></g><path d="M 320 105 L 500 105" fill="none" stroke="rgb(0, 0, 0)" stroke-miterlimit="10" pointer-events="all"/><path d="M 410 184 L 410 121.37" fill="none" stroke="rgb(0, 0, 0)" stroke-miterlimit="10" pointer-events="stroke"/><path d="M 410 116.12 L 413.5 123.12 L 410 121.37 L 406.5 123.12 Z" fill="rgb(0, 0, 0)" stroke="rgb(0, 0, 0)" stroke-miterlimit="10" pointer-events="all"/><path d="M 320 224 L 320 184 L 500 184 L 500 224" fill="rgb(255, 255, 255)" stroke="rgb(0, 0, 0)" stroke-miterlimit="10" pointer-events="all"/><path d="M 320 224 L 320 284 L 500 284 L 500 224" fill="none" stroke="rgb(0, 0, 0)" stroke-miterlimit="10" pointer-events="none"/><path d="M 320 224 L 500 224" fill="none" stroke="rgb(0, 0, 0)" stroke-miterlimit="10" pointer-events="none"/><g fill="rgb(0, 0, 0)" font-family="Helvetica" text-anchor="middle" font-size="12px"><text x="409.5" y="201.5">&lt;&lt; case class &gt;&gt;</text><text x="409.5" y="215.5">Variable</text></g><rect x="320" y="224" width="180" height="26" fill="none" stroke="none" pointer-events="all"/><g fill="rgb(0, 0, 0)" font-family="Helvetica" clip-path="url(#mx-clip-324-229-172-26-0)" font-size="12px"><text x="325.5" y="241.5">name: String</text></g><rect x="320" y="250" width="180" height="26" fill="none" stroke="none" pointer-events="all"/><g fill="rgb(0, 0, 0)" font-family="Helvetica" clip-path="url(#mx-clip-324-255-172-26-0)" font-size="12px"><text x="325.5" y="267.5">value: Boolean</text></g><path d="M 320 280 L 500 280" fill="none" stroke="rgb(0, 0, 0)" stroke-miterlimit="10" pointer-events="all"/><path d="M 70 204 L 70 172 L 105 172 L 105 146.37" fill="none" stroke="rgb(0, 0, 0)" stroke-miterlimit="10" pointer-events="stroke"/><path d="M 105 141.12 L 108.5 148.12 L 105 146.37 L 101.5 148.12 Z" fill="rgb(0, 0, 0)" stroke="rgb(0, 0, 0)" stroke-miterlimit="10" pointer-events="all"/><path d="M 10 244 L 10 204 L 130 204 L 130 244" fill="rgb(255, 255, 255)" stroke="rgb(0, 0, 0)" stroke-miterlimit="10" pointer-events="all"/><path d="M 10 244 L 10 304 L 130 304 L 130 244" fill="none" stroke="rgb(0, 0, 0)" stroke-miterlimit="10" pointer-events="none"/><path d="M 10 244 L 130 244" fill="none" stroke="rgb(0, 0, 0)" stroke-miterlimit="10" pointer-events="none"/><g fill="rgb(0, 0, 0)" font-family="Helvetica" text-anchor="middle" font-size="12px"><text x="69.5" y="221.5">&lt;&lt; enum &gt;&gt;</text><text x="69.5" y="235.5">Result</text></g><rect x="10" y="244" width="120" height="26" fill="none" stroke="none" pointer-events="all"/><g fill="rgb(0, 0, 0)" font-family="Helvetica" clip-path="url(#mx-clip-14-249-112-26-0)" font-size="12px"><text x="15.5" y="261.5">SAT</text></g><rect x="10" y="270" width="120" height="26" fill="none" stroke="none" pointer-events="all"/><g fill="rgb(0, 0, 0)" font-family="Helvetica" clip-path="url(#mx-clip-14-275-112-26-0)" font-size="12px"><text x="15.5" y="287.5">UNSAT</text></g><path d="M 10 300 L 130 300" fill="none" stroke="rgb(0, 0, 0)" stroke-miterlimit="10" pointer-events="all"/><path d="M 220 204 L 220 172 L 195 172 L 195 146.37" fill="none" stroke="rgb(0, 0, 0)" stroke-miterlimit="10" pointer-events="stroke"/><path d="M 195 141.12 L 198.5 148.12 L 195 146.37 L 191.5 148.12 Z" fill="rgb(0, 0, 0)" stroke="rgb(0, 0, 0)" stroke-miterlimit="10" pointer-events="all"/><path d="M 160 244 L 160 204 L 280 204 L 280 244" fill="rgb(255, 255, 255)" stroke="rgb(0, 0, 0)" stroke-miterlimit="10" pointer-events="all"/><path d="M 160 244 L 160 304 L 280 304 L 280 244" fill="none" stroke="rgb(0, 0, 0)" stroke-miterlimit="10" pointer-events="none"/><path d="M 160 244 L 280 244" fill="none" stroke="rgb(0, 0, 0)" stroke-miterlimit="10" pointer-events="none"/><g fill="rgb(0, 0, 0)" font-family="Helvetica" text-anchor="middle" font-size="12px"><text x="219.5" y="221.5">&lt;&lt; enum &gt;&gt;</text><text x="219.5" y="235.5">Status</text></g><rect x="160" y="244" width="120" height="26" fill="none" stroke="none" pointer-events="all"/><g fill="rgb(0, 0, 0)" font-family="Helvetica" clip-path="url(#mx-clip-164-249-112-26-0)" font-size="12px"><text x="165.5" y="261.5">PARTIAL</text></g><rect x="160" y="270" width="120" height="26" fill="none" stroke="none" pointer-events="all"/><g fill="rgb(0, 0, 0)" font-family="Helvetica" clip-path="url(#mx-clip-164-275-112-26-0)" font-size="12px"><text x="165.5" y="287.5">COMPLETED</text></g><path d="M 160 300 L 280 300" fill="none" stroke="rgb(0, 0, 0)" stroke-miterlimit="10" pointer-events="all"/></g></svg>