<?xml version="1.0" encoding="UTF-8" standalone="no"?>
<!DOCTYPE svg PUBLIC "-//W3C//DTD SVG 1.1//EN"
 "http://www.w3.org/Graphics/SVG/1.1/DTD/svg11.dtd">
<!-- Generated by graphviz version 2.40.1 (20161225.0304)
 -->
<!-- Title: BinaryTree Pages: 1 -->
<svg width="350pt" height="332pt"
 viewBox="0.00 0.00 350.00 332.00" xmlns="http://www.w3.org/2000/svg" xmlns:xlink="http://www.w3.org/1999/xlink">
<g id="graph0" class="graph" transform="scale(1 1) rotate(0) translate(4 328)">
<title>BinaryTree</title>
<!-- And1 -->
<g id="node1" class="node">
<title>And1</title>
<polygon fill="none" stroke="#ffffff" points="126,-324 72,-324 72,-288 126,-288 126,-324"/>
<text text-anchor="middle" x="99" y="-301.8" font-family="monospace" font-size="14.00" fill="#ffffff">And</text>
</g>
<!-- Or1 -->
<g id="node2" class="node">
<title>Or1</title>
<polygon fill="none" stroke="#ffffff" points="90,-252 36,-252 36,-216 90,-216 90,-252"/>
<text text-anchor="middle" x="63" y="-229.8" font-family="monospace" font-size="14.00" fill="#ffffff">Or</text>
</g>
<!-- And1&#45;&gt;Or1 -->
<g id="edge1" class="edge">
<title>And1&#45;&gt;Or1</title>
<path fill="none" stroke="#ffffff" d="M89.9157,-287.8314C85.9385,-279.8771 81.1845,-270.369 76.7861,-261.5723"/>
<polygon fill="#ffffff" stroke="#ffffff" points="79.8093,-259.7923 72.2066,-252.4133 73.5483,-262.9228 79.8093,-259.7923"/>
</g>
<!-- C2 -->
<g id="node8" class="node">
<title>C2</title>
<polygon fill="none" stroke="#ffffff" points="162,-252 108,-252 108,-216 162,-216 162,-252"/>
<text text-anchor="middle" x="135" y="-229.8" font-family="monospace" font-size="14.00" fill="#ffffff">C</text>
</g>
<!-- And1&#45;&gt;C2 -->
<g id="edge7" class="edge">
<title>And1&#45;&gt;C2</title>
<path fill="none" stroke="#ffffff" d="M108.0843,-287.8314C112.0615,-279.8771 116.8155,-270.369 121.2139,-261.5723"/>
<polygon fill="#ffffff" stroke="#ffffff" points="124.4517,-262.9228 125.7934,-252.4133 118.1907,-259.7923 124.4517,-262.9228"/>
</g>
<!-- A1 -->
<g id="node3" class="node">
<title>A1</title>
<polygon fill="none" stroke="#ffffff" points="54,-180 0,-180 0,-144 54,-144 54,-180"/>
<text text-anchor="middle" x="27" y="-157.8" font-family="monospace" font-size="14.00" fill="#ffffff">A</text>
</g>
<!-- Or1&#45;&gt;A1 -->
<g id="edge2" class="edge">
<title>Or1&#45;&gt;A1</title>
<path fill="none" stroke="#ffffff" d="M53.9157,-215.8314C49.9385,-207.8771 45.1845,-198.369 40.7861,-189.5723"/>
<polygon fill="#ffffff" stroke="#ffffff" points="43.8093,-187.7923 36.2066,-180.4133 37.5483,-190.9228 43.8093,-187.7923"/>
</g>
<!-- Or2 -->
<g id="node4" class="node">
<title>Or2</title>
<polygon fill="none" stroke="#ffffff" points="126,-180 72,-180 72,-144 126,-144 126,-180"/>
<text text-anchor="middle" x="99" y="-157.8" font-family="monospace" font-size="14.00" fill="#ffffff">Or</text>
</g>
<!-- Or1&#45;&gt;Or2 -->
<g id="edge3" class="edge">
<title>Or1&#45;&gt;Or2</title>
<path fill="none" stroke="#ffffff" d="M72.0843,-215.8314C76.0615,-207.8771 80.8155,-198.369 85.2139,-189.5723"/>
<polygon fill="#ffffff" stroke="#ffffff" points="88.4517,-190.9228 89.7934,-180.4133 82.1907,-187.7923 88.4517,-190.9228"/>
</g>
<!-- Not -->
<g id="node6" class="node">
<title>Not</title>
<polygon fill="none" stroke="#ffffff" points="90,-108 36,-108 36,-72 90,-72 90,-108"/>
<text text-anchor="middle" x="63" y="-85.8" font-family="monospace" font-size="14.00" fill="#ffffff">Not</text>
</g>
<!-- Or2&#45;&gt;Not -->
<g id="edge4" class="edge">
<title>Or2&#45;&gt;Not</title>
<path fill="none" stroke="#ffffff" d="M89.9157,-143.8314C85.9385,-135.8771 81.1845,-126.369 76.7861,-117.5723"/>
<polygon fill="#ffffff" stroke="#ffffff" points="79.8093,-115.7923 72.2066,-108.4133 73.5483,-118.9228 79.8093,-115.7923"/>
</g>
<!-- C1 -->
<g id="node7" class="node">
<title>C1</title>
<polygon fill="none" stroke="#ffffff" points="162,-108 108,-108 108,-72 162,-72 162,-108"/>
<text text-anchor="middle" x="135" y="-85.8" font-family="monospace" font-size="14.00" fill="#ffffff">C</text>
</g>
<!-- Or2&#45;&gt;C1 -->
<g id="edge6" class="edge">
<title>Or2&#45;&gt;C1</title>
<path fill="none" stroke="#ffffff" d="M108.0843,-143.8314C112.0615,-135.8771 116.8155,-126.369 121.2139,-117.5723"/>
<polygon fill="#ffffff" stroke="#ffffff" points="124.4517,-118.9228 125.7934,-108.4133 118.1907,-115.7923 124.4517,-118.9228"/>
</g>
<!-- B1 -->
<g id="node5" class="node">
<title>B1</title>
<polygon fill="none" stroke="#ffffff" points="90,-36 36,-36 36,0 90,0 90,-36"/>
<text text-anchor="middle" x="63" y="-13.8" font-family="monospace" font-size="14.00" fill="#ffffff">B</text>
</g>
<!-- Not&#45;&gt;B1 -->
<g id="edge5" class="edge">
<title>Not&#45;&gt;B1</title>
<path fill="none" stroke="#ffffff" d="M63,-71.8314C63,-64.131 63,-54.9743 63,-46.4166"/>
<polygon fill="#ffffff" stroke="#ffffff" points="66.5001,-46.4132 63,-36.4133 59.5001,-46.4133 66.5001,-46.4132"/>
</g>
<!-- invisible_node_1 -->
<g id="node9" class="node">
<title>invisible_node_1</title>
<ellipse fill="#ffffff" stroke="#ffffff" cx="189" cy="-306" rx="0" ry="0"/>
</g>
<!-- invisible_node_2 -->
<g id="node10" class="node">
<title>invisible_node_2</title>
<ellipse fill="#ffffff" stroke="#ffffff" cx="180" cy="-234" rx="0" ry="0"/>
</g>
<!-- invisible_node_1&#45;&gt;invisible_node_2 -->
<!-- invisible_node_3 -->
<g id="node11" class="node">
<title>invisible_node_3</title>
<ellipse fill="#ffffff" stroke="#ffffff" cx="198" cy="-234" rx="0" ry="0"/>
</g>
<!-- invisible_node_1&#45;&gt;invisible_node_3 -->
<!-- And11 -->
<g id="node12" class="node">
<title>And11</title>
<polygon fill="none" stroke="#ffffff" points="306,-324 252,-324 252,-288 306,-288 306,-324"/>
<text text-anchor="middle" x="279" y="-301.8" font-family="monospace" font-size="14.00" fill="#ffffff">And</text>
</g>
<!-- True -->
<g id="node13" class="node">
<title>True</title>
<polygon fill="none" stroke="#ffffff" points="270,-252 216,-252 216,-216 270,-216 270,-252"/>
<text text-anchor="middle" x="243" y="-229.8" font-family="monospace" font-size="14.00" fill="#ffffff">True</text>
</g>
<!-- And11&#45;&gt;True -->
<g id="edge10" class="edge">
<title>And11&#45;&gt;True</title>
<path fill="none" stroke="#ffffff" d="M269.9157,-287.8314C265.9385,-279.8771 261.1845,-270.369 256.7861,-261.5723"/>
<polygon fill="#ffffff" stroke="#ffffff" points="259.8093,-259.7923 252.2066,-252.4133 253.5483,-262.9228 259.8093,-259.7923"/>
</g>
<!-- C11 -->
<g id="node14" class="node">
<title>C11</title>
<polygon fill="none" stroke="#ffffff" points="342,-252 288,-252 288,-216 342,-216 342,-252"/>
<text text-anchor="middle" x="315" y="-229.8" font-family="monospace" font-size="14.00" fill="#ffffff">C</text>
</g>
<!-- And11&#45;&gt;C11 -->
<g id="edge11" class="edge">
<title>And11&#45;&gt;C11</title>
<path fill="none" stroke="#ffffff" d="M288.0843,-287.8314C292.0615,-279.8771 296.8155,-270.369 301.2139,-261.5723"/>
<polygon fill="#ffffff" stroke="#ffffff" points="304.4517,-262.9228 305.7934,-252.4133 298.1907,-259.7923 304.4517,-262.9228"/>
</g>
</g>
</svg>
