<?xml version="1.0" encoding="UTF-8"?>
<!DOCTYPE svg PUBLIC "-//W3C//DTD SVG 1.1//EN" "http://www.w3.org/Graphics/SVG/1.1/DTD/svg11.dtd">
<svg xmlns="http://www.w3.org/2000/svg" xmlns:xlink="http://www.w3.org/1999/xlink" version="1.1" width="677px" height="99px" viewBox="-0.5 -0.5 677 99" style="background-color: rgb(255, 255, 255);"><defs><clipPath id="mx-clip-14-61-178-26-0"><rect x="14" y="61" width="178" height="26"/></clipPath><clipPath id="mx-clip-471-55-190-26-0"><rect x="471" y="55" width="190" height="26"/></clipPath></defs><g><path d="M 253 67 L 253 27 L 413 27 L 413 67" fill="rgb(255, 255, 255)" stroke="rgb(0, 0, 0)" stroke-miterlimit="10" pointer-events="all"/><path d="M 253 67 L 253 77 L 413 77 L 413 67" fill="none" stroke="rgb(0, 0, 0)" stroke-miterlimit="10" pointer-events="none"/><path d="M 253 67 L 413 67" fill="none" stroke="rgb(0, 0, 0)" stroke-miterlimit="10" pointer-events="none"/><g fill="rgb(0, 0, 0)" font-family="Helvetica" text-anchor="middle" font-size="12px"><text x="332.5" y="44.5">&lt;&lt; case class &gt;&gt;</text><text x="332.5" y="58.5">TseitinConverter</text></g><path d="M 253 71 L 413 71" fill="none" stroke="#000000" stroke-miterlimit="10" pointer-events="all"/><path d="M 10 56.5 L 10 16.5 L 196 16.5 L 196 56.5" fill="rgb(255, 255, 255)" stroke="rgb(0, 0, 0)" stroke-miterlimit="10" pointer-events="all"/><path d="M 10 56.5 L 10 87.5 L 196 87.5 L 196 56.5" fill="none" stroke="rgb(0, 0, 0)" stroke-miterlimit="10" pointer-events="none"/><path d="M 10 56.5 L 196 56.5" fill="none" stroke="rgb(0, 0, 0)" stroke-miterlimit="10" pointer-events="none"/><g fill="rgb(0, 0, 0)" font-family="Helvetica" text-anchor="middle" font-size="12px"><text x="102.5" y="34">&lt;&lt; trait &gt;&gt;</text><text x="102.5" y="48">Converter</text></g><rect x="10" y="56.5" width="186" height="26" fill="none" stroke="none" pointer-events="all"/><g fill="rgb(0, 0, 0)" font-family="Helvetica" clip-path="url(#mx-clip-14-61-178-26-0)" font-size="12px"><text x="15.5" y="74">convert(exp: Expression): CNF</text></g><path d="M 253 52 L 202.37 52" fill="none" stroke="#000000" stroke-miterlimit="10" pointer-events="stroke"/><path d="M 197.12 52 L 204.12 48.5 L 202.37 52 L 204.12 55.5 Z" fill="#000000" stroke="#000000" stroke-miterlimit="10" pointer-events="all"/><path d="M 467 50 L 467 10 L 665 10 L 665 50" fill="rgb(255, 255, 255)" stroke="rgb(0, 0, 0)" stroke-miterlimit="10" pointer-events="all"/><path d="M 467 50 L 467 82 L 665 82 L 665 50" fill="none" stroke="rgb(0, 0, 0)" stroke-miterlimit="10" pointer-events="none"/><path d="M 467 50 L 665 50" fill="none" stroke="rgb(0, 0, 0)" stroke-miterlimit="10" pointer-events="none"/><g fill="#000000" font-family="Helvetica" text-anchor="middle" font-size="12px"><text x="565.5" y="27.5">&lt;&lt; object &gt;&gt;</text><text x="565.5" y="41.5">TseitinTransformation</text></g><rect x="467" y="50" width="198" height="26" fill="none" stroke="none" pointer-events="all"/><g fill="#000000" font-family="Helvetica" clip-path="url(#mx-clip-471-55-190-26-0)" font-size="12px"><text x="472.5" y="67.5">tseitin(exp: Expression): CNF</text></g><path d="M 413 52.06 L 439.94 52.06 L 459.42 52.12" fill="none" stroke="rgb(0, 0, 0)" stroke-miterlimit="10" stroke-dasharray="3 3" pointer-events="stroke"/><path d="M 453.52 55.6 L 460.54 52.13 L 453.55 48.6" fill="none" stroke="rgb(0, 0, 0)" stroke-miterlimit="10" pointer-events="all"/></g></svg>