<?xml version="1.0" encoding="UTF-8"?>
<!DOCTYPE svg PUBLIC "-//W3C//DTD SVG 1.1//EN" "http://www.w3.org/Graphics/SVG/1.1/DTD/svg11.dtd">
<svg xmlns="http://www.w3.org/2000/svg" xmlns:xlink="http://www.w3.org/1999/xlink" version="1.1" width="278px" height="169px" viewBox="-0.5 -0.5 278 169" style="background-color: rgb(255, 255, 255);"><defs><clipPath id="mx-clip-14-55-248-26-0"><rect x="14" y="55" width="248" height="26"/></clipPath><clipPath id="mx-clip-14-81-248-26-0"><rect x="14" y="81" width="248" height="26"/></clipPath><clipPath id="mx-clip-14-107-248-26-0"><rect x="14" y="107" width="248" height="26"/></clipPath><clipPath id="mx-clip-14-133-248-26-0"><rect x="14" y="133" width="248" height="26"/></clipPath></defs><g><path d="M 10 50 L 10 10 L 266 10 L 266 50" fill="rgb(255, 255, 255)" stroke="rgb(0, 0, 0)" stroke-miterlimit="10" pointer-events="all"/><path d="M 10 50 L 10 158 L 266 158 L 266 50" fill="none" stroke="rgb(0, 0, 0)" stroke-miterlimit="10" pointer-events="none"/><path d="M 10 50 L 266 50" fill="none" stroke="rgb(0, 0, 0)" stroke-miterlimit="10" pointer-events="none"/><g fill="#000000" font-family="Helvetica" text-anchor="middle" font-size="12px"><text x="137.5" y="27.5">&lt;&lt; enum &gt;&gt;</text><text x="137.5" y="41.5">CNF</text></g><rect x="10" y="50" width="256" height="26" fill="none" stroke="none" pointer-events="all"/><g fill="#000000" font-family="Helvetica" clip-path="url(#mx-clip-14-55-248-26-0)" font-size="12px"><text x="15.5" y="67.5">And(left: Or | Literal, right: And | Or | Literal)</text></g><rect x="10" y="76" width="256" height="26" fill="none" stroke="none" pointer-events="all"/><g fill="#000000" font-family="Helvetica" clip-path="url(#mx-clip-14-81-248-26-0)" font-size="12px"><text x="15.5" y="93.5">Or(left: Or | Literal, right: Or | Literal)</text></g><rect x="10" y="102" width="256" height="26" fill="none" stroke="none" pointer-events="all"/><g fill="#000000" font-family="Helvetica" clip-path="url(#mx-clip-14-107-248-26-0)" font-size="12px"><text x="15.5" y="119.5">Not(branch: Symbol)</text></g><rect x="10" y="128" width="256" height="26" fill="none" stroke="none" pointer-events="all"/><g fill="#000000" font-family="Helvetica" clip-path="url(#mx-clip-14-133-248-26-0)" font-size="12px"><text x="15.5" y="145.5">Symbol(value: String | Bool)</text></g></g></svg>