<?xml version="1.0" encoding="UTF-8"?>
<!DOCTYPE svg PUBLIC "-//W3C//DTD SVG 1.1//EN" "http://www.w3.org/Graphics/SVG/1.1/DTD/svg11.dtd">
<svg xmlns="http://www.w3.org/2000/svg" xmlns:xlink="http://www.w3.org/1999/xlink" version="1.1" width="421px" height="182px" viewBox="-0.5 -0.5 421 182" style="background-color: rgb(255, 255, 255);"><defs><clipPath id="mx-clip-14-63-392-26-0"><rect x="14" y="63" width="392" height="26"/></clipPath><clipPath id="mx-clip-14-89-392-26-0"><rect x="14" y="89" width="392" height="26"/></clipPath><clipPath id="mx-clip-14-115-392-26-0"><rect x="14" y="115" width="392" height="26"/></clipPath><clipPath id="mx-clip-14-141-392-26-0"><rect x="14" y="141" width="392" height="26"/></clipPath></defs><g><path d="M 10 50 L 10 10 L 410 10 L 410 50" fill="rgb(255, 255, 255)" stroke="rgb(0, 0, 0)" stroke-miterlimit="10" pointer-events="all"/><path d="M 10 50 L 10 170 L 410 170 L 410 50" fill="none" stroke="rgb(0, 0, 0)" stroke-miterlimit="10" pointer-events="none"/><path d="M 10 50 L 410 50" fill="none" stroke="rgb(0, 0, 0)" stroke-miterlimit="10" pointer-events="none"/><g fill="rgb(0, 0, 0)" font-family="Helvetica" text-anchor="middle" font-size="12px"><text x="209.5" y="27.5">&lt;&lt;object&gt;&gt;</text><text x="209.5" y="41.5">CNFSimplification</text></g><path d="M 10 54 L 410 54" fill="none" stroke="#000000" stroke-miterlimit="10" pointer-events="all"/><rect x="10" y="58" width="400" height="26" fill="none" stroke="none" pointer-events="all"/><g fill="#000000" font-family="Helvetica" clip-path="url(#mx-clip-14-63-392-26-0)" font-size="12px"><text x="15.5" y="75.5">simplifyCnf(cnf: CNF, constr: Constraint): CNF</text></g><rect x="10" y="84" width="400" height="26" fill="none" stroke="none" pointer-events="all"/><g fill="#000000" font-family="Helvetica" clip-path="url(#mx-clip-14-89-392-26-0)" font-size="12px"><text x="15.5" y="101.5">- simplifyUppermostOr[T&lt;: CNF](cnf: T, constr: Constraint): T</text></g><rect x="10" y="110" width="400" height="26" fill="none" stroke="none" pointer-events="all"/><g fill="#000000" font-family="Helvetica" clip-path="url(#mx-clip-14-115-392-26-0)" font-size="12px"><text x="15.5" y="127.5">- simplifyClosestOr[T&lt;: CNF](cnf: T, constr: Constraint): T</text></g><rect x="10" y="136" width="400" height="26" fill="none" stroke="none" pointer-events="all"/><g fill="#000000" font-family="Helvetica" clip-path="url(#mx-clip-14-141-392-26-0)" font-size="12px"><text x="15.5" y="153.5">- simplifyClosestAnd[T&lt;: CNF](cnf: T): T</text></g></g></svg>