<?xml version="1.0" encoding="UTF-8" standalone="no"?>
<!DOCTYPE svg PUBLIC "-//W3C//DTD SVG 1.1//EN"
 "http://www.w3.org/Graphics/SVG/1.1/DTD/svg11.dtd">
<!-- Generated by graphviz version 2.40.1 (20161225.0304)
 -->
<!-- Title: BinaryTree Pages: 1 -->
<svg width="332pt" height="332pt"
 viewBox="0.00 0.00 332.00 332.00" xmlns="http://www.w3.org/2000/svg" xmlns:xlink="http://www.w3.org/1999/xlink">
<g id="graph0" class="graph" transform="scale(1 1) rotate(0) translate(4 328)">
<title>BinaryTree</title>
<!-- And11 -->
<g id="node1" class="node">
<title>And11</title>
<polygon fill="none" stroke="#ffffff" points="109,-324 55,-324 55,-288 109,-288 109,-324"/>
<text text-anchor="middle" x="82" y="-301.8" font-family="monospace" font-size="14.00" fill="#ffffff">And</text>
</g>
<!-- Or11 -->
<g id="node2" class="node">
<title>Or11</title>
<polygon fill="none" stroke="#ffffff" points="72,-252 18,-252 18,-216 72,-216 72,-252"/>
<text text-anchor="middle" x="45" y="-229.8" font-family="monospace" font-size="14.00" fill="#ffffff">Or</text>
</g>
<!-- And11&#45;&gt;Or11 -->
<g id="edge1" class="edge">
<title>And11&#45;&gt;Or11</title>
<path fill="none" stroke="#ffffff" d="M72.6633,-287.8314C68.5757,-279.8771 63.6896,-270.369 59.1691,-261.5723"/>
<polygon fill="#ffffff" stroke="#ffffff" points="62.1461,-259.7078 54.4624,-252.4133 55.9201,-262.9074 62.1461,-259.7078"/>
</g>
<!-- C12 -->
<g id="node9" class="node">
<title>C12</title>
<polygon fill="none" stroke="#ffffff" points="144,-252 90,-252 90,-216 144,-216 144,-252"/>
<text text-anchor="middle" x="117" y="-229.8" font-family="monospace" font-size="14.00" fill="#ffffff">C</text>
</g>
<!-- And11&#45;&gt;C12 -->
<g id="edge8" class="edge">
<title>And11&#45;&gt;C12</title>
<path fill="none" stroke="#ffffff" d="M90.832,-287.8314C94.6986,-279.8771 99.3206,-270.369 103.5968,-261.5723"/>
<polygon fill="#ffffff" stroke="#ffffff" points="106.8249,-262.9371 108.0491,-252.4133 100.5293,-259.8768 106.8249,-262.9371"/>
</g>
<!-- A11 -->
<g id="node3" class="node">
<title>A11</title>
<polygon fill="none" stroke="#ffffff" points="54,-180 0,-180 0,-144 54,-144 54,-180"/>
<text text-anchor="middle" x="27" y="-157.8" font-family="monospace" font-size="14.00" fill="#ffffff">A</text>
</g>
<!-- Or11&#45;&gt;A11 -->
<g id="edge2" class="edge">
<title>Or11&#45;&gt;A11</title>
<path fill="none" stroke="#ffffff" d="M40.4578,-215.8314C38.5116,-208.0463 36.1932,-198.7729 34.0337,-190.1347"/>
<polygon fill="#ffffff" stroke="#ffffff" points="37.4242,-189.2658 31.6033,-180.4133 30.6332,-190.9636 37.4242,-189.2658"/>
</g>
<!-- Or12 -->
<g id="node4" class="node">
<title>Or12</title>
<polygon fill="none" stroke="#ffffff" points="126,-180 72,-180 72,-144 126,-144 126,-180"/>
<text text-anchor="middle" x="99" y="-157.8" font-family="monospace" font-size="14.00" fill="#ffffff">Or</text>
</g>
<!-- Or11&#45;&gt;Or12 -->
<g id="edge3" class="edge">
<title>Or11&#45;&gt;Or12</title>
<path fill="none" stroke="#ffffff" d="M58.6265,-215.8314C64.846,-207.5386 72.3322,-197.557 79.16,-188.4533"/>
<polygon fill="#ffffff" stroke="#ffffff" points="81.99,-190.5133 85.19,-180.4133 76.39,-186.3133 81.99,-190.5133"/>
</g>
<!-- A12 -->
<g id="node5" class="node">
<title>A12</title>
<polygon fill="none" stroke="#ffffff" points="90,-108 36,-108 36,-72 90,-72 90,-108"/>
<text text-anchor="middle" x="63" y="-85.8" font-family="monospace" font-size="14.00" fill="#ffffff">A</text>
</g>
<!-- Or12&#45;&gt;A12 -->
<g id="edge4" class="edge">
<title>Or12&#45;&gt;A12</title>
<path fill="none" stroke="#ffffff" d="M89.9157,-143.8314C85.9385,-135.8771 81.1845,-126.369 76.7861,-117.5723"/>
<polygon fill="#ffffff" stroke="#ffffff" points="79.8093,-115.7923 72.2066,-108.4133 73.5483,-118.9228 79.8093,-115.7923"/>
</g>
<!-- Or13 -->
<g id="node6" class="node">
<title>Or13</title>
<polygon fill="none" stroke="#ffffff" points="162,-108 108,-108 108,-72 162,-72 162,-108"/>
<text text-anchor="middle" x="135" y="-85.8" font-family="monospace" font-size="14.00" fill="#ffffff">Or</text>
</g>
<!-- Or12&#45;&gt;Or13 -->
<g id="edge5" class="edge">
<title>Or12&#45;&gt;Or13</title>
<path fill="none" stroke="#ffffff" d="M108.0843,-143.8314C112.0615,-135.8771 116.8155,-126.369 121.2139,-117.5723"/>
<polygon fill="#ffffff" stroke="#ffffff" points="124.4517,-118.9228 125.7934,-108.4133 118.1907,-115.7923 124.4517,-118.9228"/>
</g>
<!-- B11 -->
<g id="node7" class="node">
<title>B11</title>
<polygon fill="none" stroke="#ffffff" points="126,-36 72,-36 72,0 126,0 126,-36"/>
<text text-anchor="middle" x="99" y="-13.8" font-family="monospace" font-size="14.00" fill="#ffffff">B</text>
</g>
<!-- Or13&#45;&gt;B11 -->
<g id="edge6" class="edge">
<title>Or13&#45;&gt;B11</title>
<path fill="none" stroke="#ffffff" d="M125.9157,-71.8314C121.9385,-63.8771 117.1845,-54.369 112.7861,-45.5723"/>
<polygon fill="#ffffff" stroke="#ffffff" points="115.8093,-43.7923 108.2066,-36.4133 109.5483,-46.9228 115.8093,-43.7923"/>
</g>
<!-- C11 -->
<g id="node8" class="node">
<title>C11</title>
<polygon fill="none" stroke="#ffffff" points="198,-36 144,-36 144,0 198,0 198,-36"/>
<text text-anchor="middle" x="171" y="-13.8" font-family="monospace" font-size="14.00" fill="#ffffff">C</text>
</g>
<!-- Or13&#45;&gt;C11 -->
<g id="edge7" class="edge">
<title>Or13&#45;&gt;C11</title>
<path fill="none" stroke="#ffffff" d="M144.0843,-71.8314C148.0615,-63.8771 152.8155,-54.369 157.2139,-45.5723"/>
<polygon fill="#ffffff" stroke="#ffffff" points="160.4517,-46.9228 161.7934,-36.4133 154.1907,-43.7923 160.4517,-46.9228"/>
</g>
<!-- invisible_node_11 -->
<g id="node10" class="node">
<title>invisible_node_11</title>
<ellipse fill="#ffffff" stroke="#ffffff" cx="145" cy="-306" rx="0" ry="0"/>
</g>
<!-- invisible_node_22 -->
<g id="node11" class="node">
<title>invisible_node_22</title>
<ellipse fill="#ffffff" stroke="#ffffff" cx="172" cy="-306" rx="0" ry="0"/>
</g>
<!-- invisible_node_33 -->
<g id="node12" class="node">
<title>invisible_node_33</title>
<ellipse fill="#ffffff" stroke="#ffffff" cx="194" cy="-306" rx="0" ry="0"/>
</g>
<!-- invisible_node_44 -->
<g id="node13" class="node">
<title>invisible_node_44</title>
<ellipse fill="#ffffff" stroke="#ffffff" cx="214" cy="-306" rx="0" ry="0"/>
</g>
<!-- And21 -->
<g id="node14" class="node">
<title>And21</title>
<polygon fill="none" stroke="#ffffff" points="287,-324 233,-324 233,-288 287,-288 287,-324"/>
<text text-anchor="middle" x="260" y="-301.8" font-family="monospace" font-size="14.00" fill="#ffffff">And</text>
</g>
<!-- Or21 -->
<g id="node15" class="node">
<title>Or21</title>
<polygon fill="none" stroke="#ffffff" points="252,-252 198,-252 198,-216 252,-216 252,-252"/>
<text text-anchor="middle" x="225" y="-229.8" font-family="monospace" font-size="14.00" fill="#ffffff">Or</text>
</g>
<!-- And21&#45;&gt;Or21 -->
<g id="edge9" class="edge">
<title>And21&#45;&gt;Or21</title>
<path fill="none" stroke="#ffffff" d="M251.168,-287.8314C247.3014,-279.8771 242.6794,-270.369 238.4032,-261.5723"/>
<polygon fill="#ffffff" stroke="#ffffff" points="241.4707,-259.8768 233.9509,-252.4133 235.1751,-262.9371 241.4707,-259.8768"/>
</g>
<!-- C22 -->
<g id="node18" class="node">
<title>C22</title>
<polygon fill="none" stroke="#ffffff" points="324,-252 270,-252 270,-216 324,-216 324,-252"/>
<text text-anchor="middle" x="297" y="-229.8" font-family="monospace" font-size="14.00" fill="#ffffff">C</text>
</g>
<!-- And21&#45;&gt;C22 -->
<g id="edge12" class="edge">
<title>And21&#45;&gt;C22</title>
<path fill="none" stroke="#ffffff" d="M269.3367,-287.8314C273.4243,-279.8771 278.3104,-270.369 282.8309,-261.5723"/>
<polygon fill="#ffffff" stroke="#ffffff" points="286.0799,-262.9074 287.5376,-252.4133 279.8539,-259.7078 286.0799,-262.9074"/>
</g>
<!-- B21 -->
<g id="node16" class="node">
<title>B21</title>
<polygon fill="none" stroke="#ffffff" points="225,-180 171,-180 171,-144 225,-144 225,-180"/>
<text text-anchor="middle" x="198" y="-157.8" font-family="monospace" font-size="14.00" fill="#ffffff">B</text>
</g>
<!-- Or21&#45;&gt;B21 -->
<g id="edge10" class="edge">
<title>Or21&#45;&gt;B21</title>
<path fill="none" stroke="#ffffff" d="M218.1868,-215.8314C215.2356,-207.9617 211.7142,-198.5712 208.445,-189.8533"/>
<polygon fill="#ffffff" stroke="#ffffff" points="211.6934,-188.5476 204.905,-180.4133 205.1391,-191.0055 211.6934,-188.5476"/>
</g>
<!-- C21 -->
<g id="node17" class="node">
<title>C21</title>
<polygon fill="none" stroke="#ffffff" points="297,-180 243,-180 243,-144 297,-144 297,-180"/>
<text text-anchor="middle" x="270" y="-157.8" font-family="monospace" font-size="14.00" fill="#ffffff">C</text>
</g>
<!-- Or21&#45;&gt;C21 -->
<g id="edge11" class="edge">
<title>Or21&#45;&gt;C21</title>
<path fill="none" stroke="#ffffff" d="M236.3554,-215.8314C241.4326,-207.7079 247.5227,-197.9637 253.1176,-189.0118"/>
<polygon fill="#ffffff" stroke="#ffffff" points="256.1597,-190.7483 258.4917,-180.4133 250.2237,-187.0383 256.1597,-190.7483"/>
</g>
</g>
</svg>
