<?xml version="1.0" encoding="UTF-8" standalone="no"?>
<!DOCTYPE svg PUBLIC "-//W3C//DTD SVG 1.1//EN"
 "http://www.w3.org/Graphics/SVG/1.1/DTD/svg11.dtd">
<!-- Generated by graphviz version 2.40.1 (20161225.0304)
 -->
<!-- Title: BinaryTree Pages: 1 -->
<svg width="468pt" height="332pt"
 viewBox="0.00 0.00 468.00 332.00" xmlns="http://www.w3.org/2000/svg" xmlns:xlink="http://www.w3.org/1999/xlink">
<g id="graph0" class="graph" transform="scale(1 1) rotate(0) translate(4 328)">
<title>BinaryTree</title>
<!-- And11 -->
<g id="node1" class="node">
<title>And11</title>
<polygon fill="none" stroke="#ffffff" points="162,-324 108,-324 108,-288 162,-288 162,-324"/>
<text text-anchor="middle" x="135" y="-301.8" font-family="monospace" font-size="14.00" fill="#ffffff">And</text>
</g>
<!-- Or11 -->
<g id="node2" class="node">
<title>Or11</title>
<polygon fill="none" stroke="#ffffff" points="126,-252 72,-252 72,-216 126,-216 126,-252"/>
<text text-anchor="middle" x="99" y="-229.8" font-family="monospace" font-size="14.00" fill="#ffffff">Or</text>
</g>
<!-- And11&#45;&gt;Or11 -->
<g id="edge1" class="edge">
<title>And11&#45;&gt;Or11</title>
<path fill="none" stroke="#ffffff" d="M125.9157,-287.8314C121.9385,-279.8771 117.1845,-270.369 112.7861,-261.5723"/>
<polygon fill="#ffffff" stroke="#ffffff" points="115.8093,-259.7923 108.2066,-252.4133 109.5483,-262.9228 115.8093,-259.7923"/>
</g>
<!-- Or13 -->
<g id="node8" class="node">
<title>Or13</title>
<polygon fill="none" stroke="#ffffff" points="198,-252 144,-252 144,-216 198,-216 198,-252"/>
<text text-anchor="middle" x="171" y="-229.8" font-family="monospace" font-size="14.00" fill="#ffffff">Or</text>
</g>
<!-- And11&#45;&gt;Or13 -->
<g id="edge7" class="edge">
<title>And11&#45;&gt;Or13</title>
<path fill="none" stroke="#ffffff" d="M144.0843,-287.8314C148.0615,-279.8771 152.8155,-270.369 157.2139,-261.5723"/>
<polygon fill="#ffffff" stroke="#ffffff" points="160.4517,-262.9228 161.7934,-252.4133 154.1907,-259.7923 160.4517,-262.9228"/>
</g>
<!-- A11 -->
<g id="node3" class="node">
<title>A11</title>
<polygon fill="none" stroke="#ffffff" points="54,-180 0,-180 0,-144 54,-144 54,-180"/>
<text text-anchor="middle" x="27" y="-157.8" font-family="monospace" font-size="14.00" fill="#ffffff">A</text>
</g>
<!-- Or11&#45;&gt;A11 -->
<g id="edge2" class="edge">
<title>Or11&#45;&gt;A11</title>
<path fill="none" stroke="#ffffff" d="M80.8314,-215.8314C72.2848,-207.2848 61.9443,-196.9443 52.6198,-187.6198"/>
<polygon fill="#ffffff" stroke="#ffffff" points="54.9592,-185.0095 45.4133,-180.4133 50.0095,-189.9592 54.9592,-185.0095"/>
</g>
<!-- Or12 -->
<g id="node4" class="node">
<title>Or12</title>
<polygon fill="none" stroke="#ffffff" points="126,-180 72,-180 72,-144 126,-144 126,-180"/>
<text text-anchor="middle" x="99" y="-157.8" font-family="monospace" font-size="14.00" fill="#ffffff">Or</text>
</g>
<!-- Or11&#45;&gt;Or12 -->
<g id="edge3" class="edge">
<title>Or11&#45;&gt;Or12</title>
<path fill="none" stroke="#ffffff" d="M99,-215.8314C99,-208.131 99,-198.9743 99,-190.4166"/>
<polygon fill="#ffffff" stroke="#ffffff" points="102.5001,-190.4132 99,-180.4133 95.5001,-190.4133 102.5001,-190.4132"/>
</g>
<!-- Not11 -->
<g id="node5" class="node">
<title>Not11</title>
<polygon fill="none" stroke="#ffffff" points="90,-108 36,-108 36,-72 90,-72 90,-108"/>
<text text-anchor="middle" x="63" y="-85.8" font-family="monospace" font-size="14.00" fill="#ffffff">Not</text>
</g>
<!-- Or12&#45;&gt;Not11 -->
<g id="edge4" class="edge">
<title>Or12&#45;&gt;Not11</title>
<path fill="none" stroke="#ffffff" d="M89.9157,-143.8314C85.9385,-135.8771 81.1845,-126.369 76.7861,-117.5723"/>
<polygon fill="#ffffff" stroke="#ffffff" points="79.8093,-115.7923 72.2066,-108.4133 73.5483,-118.9228 79.8093,-115.7923"/>
</g>
<!-- C11 -->
<g id="node7" class="node">
<title>C11</title>
<polygon fill="none" stroke="#ffffff" points="162,-108 108,-108 108,-72 162,-72 162,-108"/>
<text text-anchor="middle" x="135" y="-85.8" font-family="monospace" font-size="14.00" fill="#ffffff">C</text>
</g>
<!-- Or12&#45;&gt;C11 -->
<g id="edge6" class="edge">
<title>Or12&#45;&gt;C11</title>
<path fill="none" stroke="#ffffff" d="M108.0843,-143.8314C112.0615,-135.8771 116.8155,-126.369 121.2139,-117.5723"/>
<polygon fill="#ffffff" stroke="#ffffff" points="124.4517,-118.9228 125.7934,-108.4133 118.1907,-115.7923 124.4517,-118.9228"/>
</g>
<!-- B11 -->
<g id="node6" class="node">
<title>B11</title>
<polygon fill="none" stroke="#ffffff" points="90,-36 36,-36 36,0 90,0 90,-36"/>
<text text-anchor="middle" x="63" y="-13.8" font-family="monospace" font-size="14.00" fill="#ffffff">B</text>
</g>
<!-- Not11&#45;&gt;B11 -->
<g id="edge5" class="edge">
<title>Not11&#45;&gt;B11</title>
<path fill="none" stroke="#ffffff" d="M63,-71.8314C63,-64.131 63,-54.9743 63,-46.4166"/>
<polygon fill="#ffffff" stroke="#ffffff" points="66.5001,-46.4132 63,-36.4133 59.5001,-46.4133 66.5001,-46.4132"/>
</g>
<!-- A12 -->
<g id="node9" class="node">
<title>A12</title>
<polygon fill="none" stroke="#ffffff" points="198,-180 144,-180 144,-144 198,-144 198,-180"/>
<text text-anchor="middle" x="171" y="-157.8" font-family="monospace" font-size="14.00" fill="#ffffff">A</text>
</g>
<!-- Or13&#45;&gt;A12 -->
<g id="edge8" class="edge">
<title>Or13&#45;&gt;A12</title>
<path fill="none" stroke="#ffffff" d="M171,-215.8314C171,-208.131 171,-198.9743 171,-190.4166"/>
<polygon fill="#ffffff" stroke="#ffffff" points="174.5001,-190.4132 171,-180.4133 167.5001,-190.4133 174.5001,-190.4132"/>
</g>
<!-- C12 -->
<g id="node10" class="node">
<title>C12</title>
<polygon fill="none" stroke="#ffffff" points="270,-180 216,-180 216,-144 270,-144 270,-180"/>
<text text-anchor="middle" x="243" y="-157.8" font-family="monospace" font-size="14.00" fill="#ffffff">C</text>
</g>
<!-- Or13&#45;&gt;C12 -->
<g id="edge9" class="edge">
<title>Or13&#45;&gt;C12</title>
<path fill="none" stroke="#ffffff" d="M189.1686,-215.8314C197.7152,-207.2848 208.0557,-196.9443 217.3802,-187.6198"/>
<polygon fill="#ffffff" stroke="#ffffff" points="219.9905,-189.9592 224.5867,-180.4133 215.0408,-185.0095 219.9905,-189.9592"/>
</g>
<!-- invisible_node_11 -->
<g id="node11" class="node">
<title>invisible_node_11</title>
<ellipse fill="#ffffff" stroke="#ffffff" cx="225" cy="-306" rx="0" ry="0"/>
</g>
<!-- invisible_node_22 -->
<g id="node12" class="node">
<title>invisible_node_22</title>
<ellipse fill="#ffffff" stroke="#ffffff" cx="216" cy="-234" rx="0" ry="0"/>
</g>
<!-- invisible_node_11&#45;&gt;invisible_node_22 -->
<!-- invisible_node_33 -->
<g id="node13" class="node">
<title>invisible_node_33</title>
<ellipse fill="#ffffff" stroke="#ffffff" cx="234" cy="-234" rx="0" ry="0"/>
</g>
<!-- invisible_node_11&#45;&gt;invisible_node_33 -->
<!-- invisible_node_111 -->
<g id="node14" class="node">
<title>invisible_node_111</title>
<ellipse fill="#ffffff" stroke="#ffffff" cx="243" cy="-306" rx="0" ry="0"/>
</g>
<!-- invisible_node_111&#45;&gt;invisible_node_33 -->
<!-- invisible_node_222 -->
<g id="node15" class="node">
<title>invisible_node_222</title>
<ellipse fill="#ffffff" stroke="#ffffff" cx="252" cy="-234" rx="0" ry="0"/>
</g>
<!-- invisible_node_111&#45;&gt;invisible_node_222 -->
<!-- invisible_node_333 -->
<g id="node16" class="node">
<title>invisible_node_333</title>
<ellipse fill="#ffffff" stroke="#ffffff" cx="292" cy="-306" rx="0" ry="0"/>
</g>
<!-- And21 -->
<g id="node17" class="node">
<title>And21</title>
<polygon fill="none" stroke="#ffffff" points="380,-324 326,-324 326,-288 380,-288 380,-324"/>
<text text-anchor="middle" x="353" y="-301.8" font-family="monospace" font-size="14.00" fill="#ffffff">And</text>
</g>
<!-- True21 -->
<g id="node18" class="node">
<title>True21</title>
<polygon fill="none" stroke="#ffffff" points="352,-252 298,-252 298,-216 352,-216 352,-252"/>
<text text-anchor="middle" x="325" y="-229.8" font-family="monospace" font-size="14.00" fill="#ffffff">True</text>
</g>
<!-- And21&#45;&gt;True21 -->
<g id="edge14" class="edge">
<title>And21&#45;&gt;True21</title>
<path fill="none" stroke="#ffffff" d="M345.9344,-287.8314C342.874,-279.9617 339.2221,-270.5712 335.8318,-261.8533"/>
<polygon fill="#ffffff" stroke="#ffffff" points="339.0473,-260.4647 332.1607,-252.4133 332.5232,-263.0019 339.0473,-260.4647"/>
</g>
<!-- Or21 -->
<g id="node19" class="node">
<title>Or21</title>
<polygon fill="none" stroke="#ffffff" points="424,-252 370,-252 370,-216 424,-216 424,-252"/>
<text text-anchor="middle" x="397" y="-229.8" font-family="monospace" font-size="14.00" fill="#ffffff">Or</text>
</g>
<!-- And21&#45;&gt;Or21 -->
<g id="edge15" class="edge">
<title>And21&#45;&gt;Or21</title>
<path fill="none" stroke="#ffffff" d="M364.1031,-287.8314C369.0674,-279.7079 375.0222,-269.9637 380.4928,-261.0118"/>
<polygon fill="#ffffff" stroke="#ffffff" points="383.5194,-262.7712 385.7474,-252.4133 377.5464,-259.121 383.5194,-262.7712"/>
</g>
<!-- A21 -->
<g id="node20" class="node">
<title>A21</title>
<polygon fill="none" stroke="#ffffff" points="388,-180 334,-180 334,-144 388,-144 388,-180"/>
<text text-anchor="middle" x="361" y="-157.8" font-family="monospace" font-size="14.00" fill="#ffffff">A</text>
</g>
<!-- Or21&#45;&gt;A21 -->
<g id="edge16" class="edge">
<title>Or21&#45;&gt;A21</title>
<path fill="none" stroke="#ffffff" d="M387.9157,-215.8314C383.9385,-207.8771 379.1845,-198.369 374.7861,-189.5723"/>
<polygon fill="#ffffff" stroke="#ffffff" points="377.8093,-187.7923 370.2066,-180.4133 371.5483,-190.9228 377.8093,-187.7923"/>
</g>
<!-- C21 -->
<g id="node21" class="node">
<title>C21</title>
<polygon fill="none" stroke="#ffffff" points="460,-180 406,-180 406,-144 460,-144 460,-180"/>
<text text-anchor="middle" x="433" y="-157.8" font-family="monospace" font-size="14.00" fill="#ffffff">C</text>
</g>
<!-- Or21&#45;&gt;C21 -->
<g id="edge17" class="edge">
<title>Or21&#45;&gt;C21</title>
<path fill="none" stroke="#ffffff" d="M406.0843,-215.8314C410.0615,-207.8771 414.8155,-198.369 419.2139,-189.5723"/>
<polygon fill="#ffffff" stroke="#ffffff" points="422.4517,-190.9228 423.7934,-180.4133 416.1907,-187.7923 422.4517,-190.9228"/>
</g>
</g>
</svg>
