<?xml version="1.0" encoding="UTF-8"?>
<!DOCTYPE svg PUBLIC "-//W3C//DTD SVG 1.1//EN" "http://www.w3.org/Graphics/SVG/1.1/DTD/svg11.dtd">
<svg xmlns="http://www.w3.org/2000/svg" xmlns:xlink="http://www.w3.org/1999/xlink" version="1.1" width="824px" height="420px" viewBox="-0.5 -0.5 824 420" style="background-color: rgb(255, 255, 255);"><defs><clipPath id="mx-clip-343-55-152-26-0"><rect x="343" y="55" width="152" height="26"/></clipPath><clipPath id="mx-clip-343-89-152-26-0"><rect x="343" y="89" width="152" height="26"/></clipPath><clipPath id="mx-clip-343-115-152-26-0"><rect x="343" y="115" width="152" height="26"/></clipPath><clipPath id="mx-clip-297-294-244-26-0"><rect x="297" y="294" width="244" height="26"/></clipPath><clipPath id="mx-clip-297-320-244-26-0"><rect x="297" y="320" width="244" height="26"/></clipPath><clipPath id="mx-clip-297-346-244-26-0"><rect x="297" y="346" width="244" height="26"/></clipPath><clipPath id="mx-clip-14-276-250-26-0"><rect x="14" y="276" width="250" height="26"/></clipPath><clipPath id="mx-clip-14-302-250-26-0"><rect x="14" y="302" width="250" height="26"/></clipPath><clipPath id="mx-clip-14-328-250-26-0"><rect x="14" y="328" width="250" height="26"/></clipPath><clipPath id="mx-clip-14-354-250-26-0"><rect x="14" y="354" width="250" height="26"/></clipPath><clipPath id="mx-clip-573-276-236-26-0"><rect x="573" y="276" width="236" height="26"/></clipPath><clipPath id="mx-clip-573-302-236-26-0"><rect x="573" y="302" width="236" height="26"/></clipPath><clipPath id="mx-clip-573-328-236-26-0"><rect x="573" y="328" width="236" height="26"/></clipPath><clipPath id="mx-clip-573-354-236-26-0"><rect x="573" y="354" width="236" height="26"/></clipPath><clipPath id="mx-clip-573-380-236-26-0"><rect x="573" y="380" width="236" height="26"/></clipPath></defs><g><path d="M 339 50 L 339 10 L 499 10 L 499 50" fill="rgb(255, 255, 255)" stroke="rgb(0, 0, 0)" stroke-miterlimit="10" pointer-events="all"/><path d="M 339 50 L 339 140 L 499 140 L 499 50" fill="none" stroke="rgb(0, 0, 0)" stroke-miterlimit="10" pointer-events="none"/><path d="M 339 50 L 499 50" fill="none" stroke="rgb(0, 0, 0)" stroke-miterlimit="10" pointer-events="none"/><g fill="#000000" font-family="Helvetica" text-anchor="middle" font-size="12px"><text x="418.5" y="27.5">&lt;&lt; trait &gt;&gt;</text><text x="418.5" y="41.5">Problem</text></g><rect x="339" y="50" width="160" height="26" fill="none" stroke="none" pointer-events="all"/><g fill="#000000" font-family="Helvetica" clip-path="url(#mx-clip-343-55-152-26-0)" font-size="12px"><text x="344.5" y="67.5">contraints: Set[Expression]</text></g><path d="M 339 80 L 499 80" fill="none" stroke="rgb(0, 0, 0)" stroke-miterlimit="10" pointer-events="all"/><rect x="339" y="84" width="160" height="26" fill="none" stroke="none" pointer-events="all"/><g fill="#000000" font-family="Helvetica" clip-path="url(#mx-clip-343-89-152-26-0)" font-size="12px"><text x="344.5" y="101.5">exp(): Expression</text></g><rect x="339" y="110" width="160" height="26" fill="none" stroke="none" pointer-events="all"/><g fill="#000000" font-family="Helvetica" clip-path="url(#mx-clip-343-115-152-26-0)" font-size="12px"><text x="344.5" y="127.5">toString(Assignment)</text></g><path d="M 419 249 L 419 195 L 419 146.37" fill="none" stroke="rgb(0, 0, 0)" stroke-miterlimit="10" pointer-events="stroke"/><path d="M 419 141.12 L 422.5 148.12 L 419 146.37 L 415.5 148.12 Z" fill="rgb(0, 0, 0)" stroke="rgb(0, 0, 0)" stroke-miterlimit="10" pointer-events="all"/><path d="M 293 289 L 293 249 L 545 249 L 545 289" fill="rgb(255, 255, 255)" stroke="rgb(0, 0, 0)" stroke-miterlimit="10" pointer-events="all"/><path d="M 293 289 L 293 375 L 545 375 L 545 289" fill="none" stroke="rgb(0, 0, 0)" stroke-miterlimit="10" pointer-events="none"/><path d="M 293 289 L 545 289" fill="none" stroke="rgb(0, 0, 0)" stroke-miterlimit="10" pointer-events="none"/><g fill="#000000" font-family="Helvetica" text-anchor="middle" font-size="12px"><text x="418.5" y="266.5">&lt;&lt; case class &gt;&gt;</text><text x="418.5" y="280.5">GraphColoring</text></g><rect x="293" y="289" width="252" height="26" fill="none" stroke="none" pointer-events="all"/><g fill="#000000" font-family="Helvetica" clip-path="url(#mx-clip-297-294-244-26-0)" font-size="12px"><text x="298.5" y="306.5">- variables: Seq[Seq[Symbol]]</text></g><rect x="293" y="315" width="252" height="26" fill="none" stroke="none" pointer-events="all"/><g fill="#000000" font-family="Helvetica" clip-path="url(#mx-clip-297-320-244-26-0)" font-size="12px"><text x="298.5" y="332.5">- nodeHasExactlyOneColor: Expression</text></g><rect x="293" y="341" width="252" height="26" fill="none" stroke="none" pointer-events="all"/><g fill="#000000" font-family="Helvetica" clip-path="url(#mx-clip-297-346-244-26-0)" font-size="12px"><text x="298.5" y="358.5">- linkedNodesHasDifferentColor: Expression</text></g><path d="M 293 371 L 545 371" fill="none" stroke="rgb(0, 0, 0)" stroke-miterlimit="10" pointer-events="all"/><path d="M 139 230.5 L 139 190 L 419 190 L 419 146.37" fill="none" stroke="rgb(0, 0, 0)" stroke-miterlimit="10" pointer-events="stroke"/><path d="M 419 141.12 L 422.5 148.12 L 419 146.37 L 415.5 148.12 Z" fill="rgb(0, 0, 0)" stroke="rgb(0, 0, 0)" stroke-miterlimit="10" pointer-events="all"/><path d="M 10 270.5 L 10 230.5 L 268 230.5 L 268 270.5" fill="rgb(255, 255, 255)" stroke="rgb(0, 0, 0)" stroke-miterlimit="10" pointer-events="all"/><path d="M 10 270.5 L 10 386.5 L 268 386.5 L 268 270.5" fill="none" stroke="rgb(0, 0, 0)" stroke-miterlimit="10" pointer-events="none"/><path d="M 10 270.5 L 268 270.5" fill="none" stroke="rgb(0, 0, 0)" stroke-miterlimit="10" pointer-events="none"/><g fill="#000000" font-family="Helvetica" text-anchor="middle" font-size="12px"><text x="138.5" y="248">&lt;&lt; case class &gt;&gt;</text><text x="138.5" y="262">NQueens</text></g><rect x="10" y="270.5" width="258" height="26" fill="none" stroke="none" pointer-events="all"/><g fill="#000000" font-family="Helvetica" clip-path="url(#mx-clip-14-276-250-26-0)" font-size="12px"><text x="15.5" y="288">- variables: Seq[Seq[Symbol]]</text></g><rect x="10" y="296.5" width="258" height="26" fill="none" stroke="none" pointer-events="all"/><g fill="#000000" font-family="Helvetica" clip-path="url(#mx-clip-14-302-250-26-0)" font-size="12px"><text x="15.5" y="314">- atLeastOneQueenRowsColumns: Expression</text></g><rect x="10" y="322.5" width="258" height="26" fill="none" stroke="none" pointer-events="all"/><g fill="#000000" font-family="Helvetica" clip-path="url(#mx-clip-14-328-250-26-0)" font-size="12px"><text x="15.5" y="340">- atMostOneQueenRowsColumns: Expression</text></g><rect x="10" y="348.5" width="258" height="26" fill="none" stroke="none" pointer-events="all"/><g fill="#000000" font-family="Helvetica" clip-path="url(#mx-clip-14-354-250-26-0)" font-size="12px"><text x="15.5" y="366">- atMostOneQueenDiagonals: Expression</text></g><path d="M 10 378.5 L 268 378.5" fill="none" stroke="rgb(0, 0, 0)" stroke-miterlimit="10" pointer-events="all"/><path d="M 691 230.5 L 687 230.57 L 687 190 L 419 190 L 419 146.37" fill="none" stroke="rgb(0, 0, 0)" stroke-miterlimit="10" pointer-events="stroke"/><path d="M 419 141.12 L 422.5 148.12 L 419 146.37 L 415.5 148.12 Z" fill="rgb(0, 0, 0)" stroke="rgb(0, 0, 0)" stroke-miterlimit="10" pointer-events="all"/><path d="M 569 270.5 L 569 230.5 L 813 230.5 L 813 270.5" fill="rgb(255, 255, 255)" stroke="rgb(0, 0, 0)" stroke-miterlimit="10" pointer-events="all"/><path d="M 569 270.5 L 569 408.5 L 813 408.5 L 813 270.5" fill="none" stroke="rgb(0, 0, 0)" stroke-miterlimit="10" pointer-events="none"/><path d="M 569 270.5 L 813 270.5" fill="none" stroke="rgb(0, 0, 0)" stroke-miterlimit="10" pointer-events="none"/><g fill="#000000" font-family="Helvetica" text-anchor="middle" font-size="12px"><text x="690.5" y="248">&lt;&lt; case class &gt;&gt;</text><text x="690.5" y="262">NurseScheduling</text></g><rect x="569" y="270.5" width="244" height="26" fill="none" stroke="none" pointer-events="all"/><g fill="#000000" font-family="Helvetica" clip-path="url(#mx-clip-573-276-236-26-0)" font-size="12px"><text x="574.5" y="288">- variables: Seq[Seq[Seq[Symbol]]]</text></g><rect x="569" y="296.5" width="244" height="26" fill="none" stroke="none" pointer-events="all"/><g fill="#000000" font-family="Helvetica" clip-path="url(#mx-clip-573-302-236-26-0)" font-size="12px"><text x="574.5" y="314">- oneNursePerShift: Expression</text></g><rect x="569" y="322.5" width="244" height="26" fill="none" stroke="none" pointer-events="all"/><g fill="#000000" font-family="Helvetica" clip-path="url(#mx-clip-573-328-236-26-0)" font-size="12px"><text x="574.5" y="340">- atMostOneShiftPerDay: Expression</text></g><rect x="569" y="348.5" width="244" height="26" fill="none" stroke="none" pointer-events="all"/><g fill="#000000" font-family="Helvetica" clip-path="url(#mx-clip-573-354-236-26-0)" font-size="12px"><text x="574.5" y="366">- minShiftsPerNurseConstraint: Expression</text></g><rect x="569" y="374.5" width="244" height="26" fill="none" stroke="none" pointer-events="all"/><g fill="#000000" font-family="Helvetica" clip-path="url(#mx-clip-573-380-236-26-0)" font-size="12px"><text x="574.5" y="392">- maxShiftsPerNurseConstraint: Expression</text></g><path d="M 569 404.5 L 813 404.5" fill="none" stroke="rgb(0, 0, 0)" stroke-miterlimit="10" pointer-events="all"/></g></svg>