<?xml version="1.0" encoding="UTF-8"?>
<!DOCTYPE svg PUBLIC "-//W3C//DTD SVG 1.1//EN" "http://www.w3.org/Graphics/SVG/1.1/DTD/svg11.dtd">
<svg xmlns="http://www.w3.org/2000/svg" xmlns:xlink="http://www.w3.org/1999/xlink" version="1.1" width="629px" height="251px" viewBox="-0.5 -0.5 629 251" style="background-color: rgb(255, 255, 255);"><defs><clipPath id="mx-clip-321-55-292-26-0"><rect x="321" y="55" width="292" height="26"/></clipPath><clipPath id="mx-clip-321-81-292-26-0"><rect x="321" y="81" width="292" height="26"/></clipPath><clipPath id="mx-clip-321-107-292-26-0"><rect x="321" y="107" width="292" height="26"/></clipPath><clipPath id="mx-clip-321-133-292-26-0"><rect x="321" y="133" width="292" height="26"/></clipPath><clipPath id="mx-clip-321-159-292-26-0"><rect x="321" y="159" width="292" height="26"/></clipPath><clipPath id="mx-clip-321-185-292-26-0"><rect x="321" y="185" width="292" height="26"/></clipPath><clipPath id="mx-clip-321-211-292-26-0"><rect x="321" y="211" width="292" height="26"/></clipPath><clipPath id="mx-clip-14-100-224-26-0"><rect x="14" y="100" width="224" height="26"/></clipPath><clipPath id="mx-clip-14-126-224-26-0"><rect x="14" y="126" width="224" height="26"/></clipPath><clipPath id="mx-clip-14-152-224-26-0"><rect x="14" y="152" width="224" height="26"/></clipPath><clipPath id="mx-clip-14-178-224-26-0"><rect x="14" y="178" width="224" height="26"/></clipPath></defs><g><path d="M 317 50 L 317 10 L 617 10 L 617 50" fill="rgb(255, 255, 255)" stroke="rgb(0, 0, 0)" stroke-miterlimit="10" pointer-events="all"/><path d="M 317 50 L 317 240 L 617 240 L 617 50" fill="none" stroke="rgb(0, 0, 0)" stroke-miterlimit="10" pointer-events="none"/><path d="M 317 50 L 617 50" fill="none" stroke="rgb(0, 0, 0)" stroke-miterlimit="10" pointer-events="none"/><g fill="#000000" font-family="Helvetica" text-anchor="middle" font-size="12px"><text x="466.5" y="27.5">&lt;&lt; object &gt;&gt;</text><text x="466.5" y="41.5">Expression</text></g><rect x="317" y="50" width="300" height="26" fill="none" stroke="none" pointer-events="all"/><g fill="#000000" font-family="Helvetica" clip-path="url(#mx-clip-321-55-292-26-0)" font-size="12px"><text x="322.5" y="67.5">zipWith[A](f: () =&gt; A): List[(A, Expression)]</text></g><rect x="317" y="76" width="300" height="26" fill="none" stroke="none" pointer-events="all"/><g fill="#000000" font-family="Helvetica" clip-path="url(#mx-clip-321-81-292-26-0)" font-size="12px"><text x="322.5" y="93.5">subexpressions(): List[Expression]</text></g><rect x="317" y="102" width="300" height="26" fill="none" stroke="none" pointer-events="all"/><g fill="#000000" font-family="Helvetica" clip-path="url(#mx-clip-321-107-292-26-0)" font-size="12px"><text x="322.5" y="119.5">contains(subexp: Expression): Boolean</text></g><rect x="317" y="128" width="300" height="26" fill="none" stroke="none" pointer-events="all"/><g fill="#000000" font-family="Helvetica" clip-path="url(#mx-clip-321-133-292-26-0)" font-size="12px"><text x="322.5" y="145.5">clauses(): Int</text></g><rect x="317" y="154" width="300" height="26" fill="none" stroke="none" pointer-events="all"/><g fill="#000000" font-family="Helvetica" clip-path="url(#mx-clip-321-159-292-26-0)" font-size="12px"><text x="322.5" y="171.5">replace(subexp: Expression, s: Symbol): Expression</text></g><rect x="317" y="180" width="300" height="26" fill="none" stroke="none" pointer-events="all"/><g fill="#000000" font-family="Helvetica" clip-path="url(#mx-clip-321-185-292-26-0)" font-size="12px"><text x="322.5" y="197.5">asDSL(): String</text></g><rect x="317" y="206" width="300" height="26" fill="none" stroke="none" pointer-events="all"/><g fill="#000000" font-family="Helvetica" clip-path="url(#mx-clip-321-211-292-26-0)" font-size="12px"><text x="322.5" y="223.5">asFormal(): String</text></g><path d="M 10 95 L 10 55 L 242 55 L 242 95" fill="rgb(255, 255, 255)" stroke="rgb(0, 0, 0)" stroke-miterlimit="10" pointer-events="all"/><path d="M 10 95 L 10 205 L 242 205 L 242 95" fill="none" stroke="rgb(0, 0, 0)" stroke-miterlimit="10" pointer-events="none"/><path d="M 10 95 L 242 95" fill="none" stroke="rgb(0, 0, 0)" stroke-miterlimit="10" pointer-events="none"/><g fill="#000000" font-family="Helvetica" text-anchor="middle" font-size="12px"><text x="125.5" y="72.5">&lt;&lt; enum &gt;&gt;</text><text x="125.5" y="86.5">Expression</text></g><rect x="10" y="95" width="232" height="26" fill="none" stroke="none" pointer-events="all"/><g fill="#000000" font-family="Helvetica" clip-path="url(#mx-clip-14-100-224-26-0)" font-size="12px"><text x="15.5" y="112.5">And(left: Expression, right: Expression)</text></g><rect x="10" y="121" width="232" height="26" fill="none" stroke="none" pointer-events="all"/><g fill="#000000" font-family="Helvetica" clip-path="url(#mx-clip-14-126-224-26-0)" font-size="12px"><text x="15.5" y="138.5">Or(left: Expression, right: Expression)</text></g><rect x="10" y="147" width="232" height="26" fill="none" stroke="none" pointer-events="all"/><g fill="#000000" font-family="Helvetica" clip-path="url(#mx-clip-14-152-224-26-0)" font-size="12px"><text x="15.5" y="164.5">Not(branch: Expression)</text></g><rect x="10" y="173" width="232" height="26" fill="none" stroke="none" pointer-events="all"/><g fill="#000000" font-family="Helvetica" clip-path="url(#mx-clip-14-178-224-26-0)" font-size="12px"><text x="15.5" y="190.5">Symbol(value: String)</text></g><path d="M 242 134.01 L 308.83 134.01" fill="none" stroke="rgb(0, 0, 0)" stroke-miterlimit="10" stroke-dasharray="3 3" pointer-events="stroke"/><path d="M 314.08 134.01 L 307.08 137.51 L 308.83 134.01 L 307.08 130.51 Z" fill="rgb(0, 0, 0)" stroke="rgb(0, 0, 0)" stroke-miterlimit="10" pointer-events="all"/></g></svg>